<?xml version="1.0" encoding="UTF-8"?>
<svg id="Layer_2" data-name="Layer 2" xmlns="http://www.w3.org/2000/svg" viewBox="0 0 708.71 199.71">
  <defs>
    <style>
      .cls-1 {
        fill: #ed1c24;
      }

      .cls-1, .cls-2 {
        stroke-width: 0px;
      }

      .cls-2 {
        fill: #231f20;
      }
    </style>
  </defs>
  <g id="Layer_1-2" data-name="Layer 1">
    <g>
      <g>
        <path class="cls-1" d="m143.49,2.17c-2.19,2.32-8.87,3.65-11.91,4.18-4.81.84-9.67,1.42-14.55,1.62-11.12.46-27.55-2.58-38.61-3.84C50.5.96,31.68,20.49,27.81,33.33c0,0,7.76-8.1,25.93-6.76,10.19.75,21.02,3.28,31.28,3.16,9.89-.12,18.72-1.83,27.79-5.77,11.58-5.04,22.01-12.63,30.68-21.8Z"/>
        <g>
          <path class="cls-1" d="m194.46,50.57c-22.13-16.86-58.52-11.75-77.82,9.89-17.86,20.02-23.88,55.48,1.03,79.06,19.67,18.62,46.58,14.07,58.07,8.83,17.28-7.87,25.51-19.44,25.51-19.44-14.04,12.86-42.25,15.63-59.14-2.31-9.06-9.63-13.29-25.49-8.77-41.64,6.09-23.16,25.22-34.38,42.67-36.15,11.38-1.15,18.45,1.77,18.45,1.77Z"/>
          <path class="cls-1" d="m212.67,79.6c6.78,14.31,5.75,33.93-.25,53.14-.17-6.16-4.59-11.81-7.77-14.57-5.58-4.83-9.43-6.29-15.28-12.01-9.19-9.01-6.5-17.48-4.58-28.61,1.22-7.08.2-16.61-7.34-20.18,17.75,0,29.37,9.87,35.22,22.23Z"/>
        </g>
        <path class="cls-1" d="m53.38.27C32.39-1.52,3.99,5.3.35,27.52c-2.48,15.16,8.72,25.79,23.38,26.35,0,0-10.63-14.7-.99-31.09C33.81,3.97,53.38.27,53.38.27Z"/>
        <path class="cls-1" d="m101.71,52.02c-7.92,9.3-14.36,22.62-16.21,34.38-1.25,7.91-2.85,17.53-4.49,25.44-2.21,10.65-7.69,22.52-20.26,31.61-10,7.23-29.31,12.82-29.31,12.82,0,0,15.1-16.71,20.39-39.61,5.53-23.91,3.5-47.06,27.34-67.54,22.02-18.92,52.24-15.92,52.2-15.91-12.93,3.5-23.03,11.03-29.65,18.81Z"/>
        <path class="cls-1" d="m182.9,163.04c-11.21,4.85-25.83,7.1-37.62,5.44-7.93-1.12-17.59-2.41-25.63-3.15-10.83-1-23.78.76-36.15,10.12-9.84,7.44-20.84,24.28-20.84,24.28,0,0,20.4-9.55,43.85-7.9,24.48,1.72,46.02,10.43,72.58-6.37,24.54-15.51,30.52-45.29,30.5-45.26-7.13,11.34-17.29,18.79-26.67,22.85Z"/>
      </g>
      <g>
        <path class="cls-2" d="m255.08,49.38c.24.03.47.1.66.19.2.09.39.22.57.38.18.16.39.38.62.66l17.03,21.4c-.06-.68-.11-1.35-.14-1.99-.03-.65-.05-1.25-.05-1.82v-18.85h7.34v35.62h-4.33c-.64,0-1.18-.1-1.62-.29-.44-.2-.87-.56-1.28-1.08l-16.91-21.22c.04.62.08,1.23.12,1.82.03.59.04,1.15.04,1.67v19.1h-7.34v-35.62h4.38c.36,0,.66.02.91.04"/>
        <path class="cls-2" d="m301.76,78.44c1.12,0,2.11-.18,2.99-.55.88-.37,1.62-.89,2.23-1.58.61-.68,1.07-1.52,1.39-2.5.32-.99.48-2.11.48-3.37v-21.1h8.31v21.1c0,2.18-.36,4.19-1.07,6.02-.71,1.82-1.73,3.4-3.06,4.72-1.33,1.32-2.95,2.35-4.85,3.08-1.91.74-4.05,1.1-6.42,1.1s-4.55-.36-6.45-1.1c-1.9-.73-3.52-1.76-4.85-3.08-1.33-1.32-2.35-2.9-3.05-4.72-.71-1.82-1.06-3.83-1.06-6.02v-21.1h8.32v21.08c0,1.25.16,2.37.48,3.36.32.99.78,1.83,1.39,2.53.61.69,1.35,1.22,2.23,1.59.87.36,1.87.55,2.99.55"/>
        <path class="cls-2" d="m343.65,56.57c-.25.39-.51.68-.77.88-.27.2-.62.29-1.05.29-.38,0-.79-.12-1.22-.35-.43-.24-.93-.5-1.48-.8-.55-.29-1.18-.56-1.88-.8-.7-.24-1.5-.35-2.41-.35-1.56,0-2.72.33-3.49.99-.76.66-1.14,1.55-1.14,2.67,0,.72.23,1.31.69,1.79.46.47,1.06.88,1.81,1.22.74.34,1.6.66,2.56.94.96.28,1.94.6,2.94.95,1,.35,1.98.76,2.94,1.23.96.47,1.82,1.08,2.56,1.81.75.74,1.35,1.62,1.81,2.68.46,1.05.69,2.32.69,3.8,0,1.64-.29,3.19-.86,4.62-.58,1.43-1.41,2.68-2.5,3.75-1.09,1.07-2.44,1.91-4.04,2.52-1.6.61-3.42.91-5.45.91-1.12,0-2.25-.11-3.41-.34-1.16-.23-2.28-.55-3.36-.97-1.09-.41-2.1-.91-3.05-1.48-.95-.57-1.78-1.21-2.49-1.9l2.46-3.87c.18-.29.43-.53.76-.71.33-.17.68-.26,1.06-.26.49,0,.98.15,1.49.46.5.31,1.07.66,1.7,1.03.63.38,1.36.72,2.18,1.03.82.31,1.79.47,2.9.47,1.51,0,2.68-.33,3.52-.99.84-.66,1.26-1.71,1.26-3.14,0-.83-.23-1.51-.69-2.03-.46-.52-1.07-.95-1.81-1.3-.75-.34-1.6-.64-2.55-.9-.95-.26-1.93-.55-2.93-.87-1-.32-1.98-.71-2.93-1.17-.95-.47-1.8-1.08-2.54-1.83-.75-.76-1.35-1.71-1.81-2.84-.46-1.13-.69-2.53-.69-4.19,0-1.34.27-2.64.81-3.91.54-1.27,1.34-2.41,2.39-3.4,1.05-.99,2.34-1.79,3.87-2.38,1.52-.59,3.27-.89,5.24-.89,1.1,0,2.17.08,3.21.25,1.04.17,2.03.43,2.96.76.94.34,1.81.73,2.63,1.2.81.46,1.53.99,2.18,1.57l-2.07,3.84Z"/>
        <path class="cls-2" d="m383.9,84.96h-6.44c-.72,0-1.32-.16-1.79-.5-.47-.34-.79-.76-.98-1.29l-2.11-6.21h-13.64l-2.12,6.21c-.17.46-.49.87-.96,1.23-.47.37-1.05.55-1.74.55h-6.51l13.88-35.62h8.52l13.88,35.62Zm-23.03-13.62h9.79l-3.29-9.75c-.21-.62-.46-1.35-.75-2.19-.28-.84-.57-1.75-.85-2.73-.27.99-.54,1.91-.81,2.76-.28.85-.54,1.58-.79,2.2l-3.3,9.71Z"/>
        <path class="cls-2" d="m393.6,49.38c.25.03.47.1.67.19.19.09.39.22.57.38.18.16.39.38.61.66l17.03,21.4c-.07-.68-.12-1.35-.15-1.99-.03-.65-.05-1.25-.05-1.82v-18.85h7.34v35.62h-4.34c-.64,0-1.18-.1-1.62-.29-.45-.2-.87-.56-1.28-1.08l-16.91-21.22c.05.62.09,1.23.12,1.82.03.59.05,1.15.05,1.67v19.1h-7.34v-35.62h4.38c.36,0,.66.02.91.04"/>
        <polygon class="cls-2" points="452.43 49.34 452.43 55.89 442.34 55.89 442.34 84.96 434.01 84.96 434.01 55.89 423.93 55.89 423.93 49.34 452.43 49.34"/>
        <path class="cls-2" d="m484.76,84.96h-6.45c-.73,0-1.31-.16-1.78-.5-.47-.34-.79-.76-.97-1.29l-2.12-6.21h-13.63l-2.12,6.21c-.16.46-.48.87-.96,1.23-.48.37-1.06.55-1.75.55h-6.5l13.88-35.62h8.51l13.88,35.62Zm-23.04-13.62h9.8l-3.3-9.75c-.21-.62-.46-1.35-.75-2.19-.29-.84-.58-1.75-.85-2.73-.26.99-.54,1.91-.81,2.76-.28.85-.54,1.58-.79,2.2l-3.3,9.71Z"/>
        <path class="cls-2" d="m497.8,71.78v13.18h-8.32v-35.62h11.67c2.59,0,4.8.26,6.63.79,1.83.53,3.32,1.27,4.48,2.22,1.15.94,2,2.06,2.52,3.34.53,1.29.79,2.69.79,4.21,0,1.16-.16,2.25-.47,3.28-.31,1.03-.77,1.98-1.39,2.85-.61.87-1.37,1.65-2.26,2.33-.89.68-1.92,1.25-3.09,1.69.56.28,1.08.62,1.56,1.03.49.41.9.91,1.27,1.49l7.63,12.4h-7.53c-1.39,0-2.39-.52-3-1.57l-5.96-10.34c-.26-.45-.57-.78-.92-.98-.36-.2-.85-.3-1.49-.3h-2.12Zm0-5.7h3.35c1.13,0,2.09-.14,2.89-.43.79-.29,1.44-.68,1.95-1.18.51-.5.88-1.09,1.11-1.77.23-.67.34-1.41.34-2.19,0-1.57-.52-2.78-1.54-3.66-1.03-.88-2.61-1.32-4.76-1.32h-3.35v10.56Z"/>
        <path class="cls-2" d="m558.08,84.96h-6.44c-.72,0-1.32-.16-1.79-.5-.46-.34-.79-.76-.97-1.29l-2.12-6.21h-13.64l-2.11,6.21c-.17.46-.48.87-.96,1.23-.48.37-1.06.55-1.75.55h-6.5l13.89-35.62h8.51l13.88,35.62Zm-23.03-13.62h9.8l-3.3-9.75c-.21-.62-.46-1.35-.75-2.19-.29-.84-.57-1.75-.85-2.73-.26.99-.54,1.91-.81,2.76-.28.85-.54,1.58-.79,2.2l-3.3,9.71Z"/>
        <g>
          <path class="cls-2" d="m575.94,84.96v-35.62h13.19c2.48,0,4.59.22,6.33.68,1.74.45,3.16,1.1,4.26,1.93,1.1.83,1.9,1.84,2.4,3.03.5,1.19.75,2.52.75,3.99,0,.8-.12,1.57-.35,2.31-.23.74-.59,1.44-1.08,2.09-.49.65-1.12,1.24-1.9,1.77-.77.53-1.69.99-2.78,1.38,2.36.57,4.11,1.49,5.24,2.77,1.13,1.28,1.69,2.92,1.69,4.93,0,1.51-.29,2.92-.88,4.23-.59,1.3-1.46,2.44-2.6,3.41-1.14.97-2.55,1.73-4.22,2.28-1.67.54-3.59.81-5.73.81h-14.33Zm8.32-20.64h4.33c.92,0,1.75-.07,2.49-.2.74-.13,1.37-.36,1.88-.68.51-.33.91-.77,1.18-1.35.27-.57.41-1.29.41-2.15s-.11-1.55-.33-2.12c-.21-.56-.54-1.02-.98-1.36-.44-.34-1.01-.58-1.69-.74-.68-.15-1.49-.22-2.43-.22h-4.87v8.81Zm0,5.52v8.88h5.86c1.1,0,2-.14,2.7-.42.7-.28,1.24-.63,1.64-1.08.4-.44.67-.94.81-1.49.15-.55.22-1.12.22-1.68,0-.65-.09-1.24-.26-1.76-.17-.52-.47-.96-.89-1.32-.42-.36-.97-.64-1.66-.83-.69-.2-1.56-.3-2.61-.3h-5.81Z"/>
          <path class="cls-2" d="m642.06,84.96h-6.44c-.73,0-1.32-.16-1.79-.5-.47-.34-.79-.76-.97-1.29l-2.12-6.21h-13.64l-2.12,6.21c-.16.46-.49.86-.96,1.24-.48.36-1.06.54-1.75.54h-6.5l13.88-35.62h8.52l13.88,35.62Zm-23.03-13.62h9.79l-3.3-9.75c-.21-.62-.46-1.35-.75-2.19-.29-.84-.56-1.75-.85-2.73-.26.99-.54,1.91-.82,2.76-.27.85-.54,1.58-.78,2.2l-3.3,9.71Z"/>
          <path class="cls-2" d="m654.92,71.79v13.18h-8.32v-35.62h11.67c2.59,0,4.8.26,6.63.79,1.83.53,3.32,1.27,4.48,2.22,1.16.94,2,2.06,2.53,3.34.52,1.29.78,2.69.78,4.21,0,1.16-.16,2.25-.47,3.28-.31,1.03-.77,1.98-1.39,2.85-.62.87-1.37,1.65-2.27,2.33-.89.68-1.92,1.25-3.09,1.69.55.28,1.08.62,1.56,1.03.49.41.91.9,1.27,1.49l7.63,12.4h-7.53c-1.4,0-2.4-.52-3-1.57l-5.96-10.34c-.26-.45-.57-.78-.92-.98-.35-.2-.85-.29-1.49-.29h-2.12Zm0-5.7h3.35c1.13,0,2.1-.14,2.89-.43.8-.29,1.45-.68,1.96-1.18.51-.51.88-1.09,1.11-1.77.23-.68.34-1.41.34-2.19,0-1.57-.51-2.79-1.54-3.67-1.03-.88-2.61-1.32-4.76-1.32h-3.35v10.56Z"/>
          <path class="cls-2" d="m693.31,78.44c1.12,0,2.11-.19,2.99-.55.88-.37,1.62-.89,2.23-1.58.6-.68,1.07-1.52,1.39-2.51.32-.99.48-2.1.48-3.36v-21.1h8.32v21.1c0,2.19-.36,4.19-1.07,6.02-.71,1.82-1.74,3.4-3.06,4.72-1.33,1.32-2.94,2.35-4.85,3.08-1.9.73-4.05,1.1-6.42,1.1s-4.55-.37-6.45-1.1c-1.9-.74-3.51-1.76-4.85-3.08-1.33-1.32-2.34-2.9-3.05-4.72-.71-1.83-1.06-3.83-1.06-6.02v-21.1h8.32v21.08c0,1.25.16,2.37.48,3.36.32.98.79,1.82,1.39,2.52.61.69,1.35,1.22,2.23,1.59.88.36,1.87.55,2.99.55"/>
        </g>
        <rect class="cls-2" x="249.78" y="109.42" width="8.37" height="35.62"/>
        <path class="cls-2" d="m269.55,109.46c.25.03.47.09.66.18.2.09.39.21.56.38.18.16.39.39.62.66l17.03,21.4c-.07-.69-.12-1.35-.15-2-.03-.64-.05-1.25-.05-1.82v-18.86h7.34v35.63h-4.34c-.64,0-1.18-.1-1.62-.29-.45-.2-.87-.56-1.28-1.08l-16.91-21.22c.05.62.09,1.22.12,1.82.04.59.04,1.15.04,1.67v19.1h-7.33v-35.63h4.38c.36,0,.67.02.91.05"/>
        <path class="cls-2" d="m334.24,127.21c0,2.58-.45,4.96-1.34,7.13-.89,2.17-2.16,4.06-3.77,5.65-1.63,1.59-3.58,2.83-5.88,3.71-2.29.89-4.83,1.34-7.62,1.34h-13.93v-35.63h13.93c2.79,0,5.33.45,7.62,1.35,2.29.9,4.25,2.14,5.88,3.72,1.62,1.59,2.88,3.46,3.77,5.64.9,2.18,1.34,4.55,1.34,7.1m-8.52,0c0-1.76-.23-3.34-.69-4.76-.46-1.42-1.12-2.62-1.98-3.61-.86-.99-1.92-1.74-3.17-2.27-1.24-.53-2.66-.8-4.26-.8h-5.56v22.91h5.56c1.59,0,3.01-.26,4.26-.8,1.25-.53,2.3-1.29,3.17-2.27.86-.98,1.52-2.19,1.98-3.6.46-1.42.69-3.02.69-4.8"/>
        <path class="cls-2" d="m374.91,127.21c0,2.58-.45,4.98-1.34,7.19-.89,2.21-2.16,4.14-3.78,5.78-1.62,1.64-3.58,2.92-5.87,3.85-2.29.93-4.83,1.39-7.62,1.39s-5.33-.46-7.63-1.39c-2.3-.93-4.26-2.21-5.89-3.85-1.63-1.64-2.9-3.57-3.79-5.78-.89-2.22-1.34-4.62-1.34-7.19s.45-4.97,1.34-7.19c.9-2.21,2.16-4.14,3.79-5.77,1.63-1.63,3.59-2.91,5.89-3.84,2.3-.93,4.84-1.39,7.63-1.39s5.33.47,7.62,1.4c2.29.93,4.25,2.23,5.87,3.85,1.62,1.63,2.89,3.55,3.78,5.77.89,2.22,1.34,4.61,1.34,7.16m-8.52,0c0-1.76-.23-3.34-.69-4.75-.46-1.41-1.12-2.6-1.98-3.59-.86-.97-1.92-1.72-3.17-2.24-1.25-.52-2.66-.78-4.26-.78s-3.04.26-4.3.78c-1.26.52-2.31,1.27-3.18,2.24-.86.98-1.52,2.18-1.98,3.59-.46,1.41-.69,3-.69,4.75s.23,3.37.69,4.78c.46,1.41,1.12,2.6,1.98,3.58.86.98,1.92,1.72,3.18,2.24,1.25.51,2.69.77,4.3.77s3.01-.26,4.26-.77c1.25-.52,2.3-1.26,3.17-2.24.86-.98,1.52-2.17,1.98-3.58.46-1.41.69-3,.69-4.78"/>
        <path class="cls-2" d="m384.48,109.46c.25.03.47.09.66.18.2.09.38.21.57.38.18.16.39.39.62.66l17.03,21.4c-.06-.69-.12-1.35-.14-2-.03-.64-.05-1.25-.05-1.82v-18.86h7.34v35.63h-4.33c-.64,0-1.18-.1-1.62-.29-.45-.2-.87-.56-1.28-1.08l-16.91-21.22c.04.62.09,1.22.12,1.82.03.59.05,1.15.05,1.67v19.1h-7.34v-35.63h4.38c.36,0,.67.02.92.05"/>
        <polygon class="cls-2" points="439.73 109.41 439.73 115.77 425.01 115.77 425.01 124.09 436.28 124.09 436.28 130.2 425.01 130.2 425.01 138.68 439.73 138.68 439.73 145.04 416.64 145.04 416.64 109.41 439.73 109.41"/>
        <path class="cls-2" d="m466.15,116.65c-.25.39-.51.69-.78.88-.27.2-.62.29-1.05.29-.37,0-.78-.12-1.21-.36-.43-.23-.93-.5-1.48-.8-.55-.29-1.18-.56-1.88-.79-.71-.24-1.51-.36-2.41-.36-1.56,0-2.72.33-3.48.99-.76.66-1.15,1.55-1.15,2.68,0,.72.23,1.31.69,1.78.46.48,1.06.88,1.81,1.22.74.35,1.6.66,2.56.94.96.29,1.94.6,2.94.96,1.01.35,1.98.76,2.95,1.23.96.47,1.81,1.08,2.55,1.81.75.73,1.36,1.63,1.82,2.68.46,1.05.69,2.32.69,3.8,0,1.65-.29,3.19-.87,4.62-.57,1.43-1.41,2.68-2.5,3.76-1.09,1.07-2.44,1.9-4.04,2.51-1.59.61-3.42.92-5.45.92-1.12,0-2.25-.12-3.41-.34-1.16-.23-2.28-.55-3.36-.97-1.09-.41-2.1-.9-3.05-1.48-.95-.57-1.78-1.21-2.49-1.91l2.46-3.86c.18-.3.44-.53.77-.71.33-.17.68-.27,1.06-.27.5,0,.99.16,1.5.47.49.31,1.06.65,1.69,1.03.64.38,1.36.72,2.18,1.03.82.31,1.79.47,2.91.47,1.51,0,2.68-.33,3.52-.99.84-.66,1.26-1.71,1.26-3.15,0-.83-.23-1.5-.69-2.02-.46-.52-1.06-.96-1.81-1.3-.75-.34-1.59-.65-2.55-.9-.95-.26-1.92-.55-2.92-.87-1-.32-1.98-.71-2.93-1.18-.95-.47-1.8-1.08-2.54-1.83-.75-.76-1.35-1.71-1.81-2.83-.46-1.13-.69-2.53-.69-4.2,0-1.33.27-2.63.81-3.91.54-1.27,1.34-2.4,2.39-3.4,1.05-1,2.34-1.79,3.87-2.38,1.53-.6,3.27-.89,5.25-.89,1.1,0,2.17.08,3.21.25,1.04.17,2.03.43,2.97.76.93.33,1.81.73,2.62,1.2.81.47,1.54.99,2.18,1.58l-2.07,3.84Z"/>
        <rect class="cls-2" x="473.95" y="109.69" width="8.37" height="35.62"/>
        <path class="cls-2" d="m523.79,145.31h-6.44c-.73,0-1.32-.17-1.79-.5-.47-.34-.8-.76-.97-1.29l-2.12-6.21h-13.64l-2.12,6.21c-.16.46-.48.87-.96,1.23-.47.37-1.05.55-1.74.55h-6.5l13.88-35.62h8.52l13.88,35.62Zm-23.04-13.62h9.79l-3.29-9.75c-.21-.62-.46-1.35-.75-2.19-.29-.84-.57-1.75-.85-2.73-.26.99-.54,1.91-.81,2.76-.28.85-.54,1.58-.79,2.2l-3.3,9.71Z"/>
        <g>
          <path class="cls-2" d="m560.93,130.96c.3.67.6,1.35.87,2.06.28-.72.57-1.42.89-2.1.31-.67.63-1.33.96-1.97l9.2-18.01c.16-.31.33-.55.51-.73.17-.17.36-.29.58-.38.21-.08.45-.12.73-.12h7.3v35.6h-7.34v-20.49c0-1,.05-2.07.15-3.23l-9.5,18.32c-.3.57-.69,1.01-1.19,1.3-.5.29-1.07.44-1.71.44h-1.13c-.64,0-1.21-.15-1.71-.44-.5-.29-.9-.72-1.2-1.3l-9.55-18.34c.07.57.12,1.14.15,1.7.03.56.05,1.08.05,1.55v20.49h-7.34v-35.6h7.3c.27,0,.51.04.73.12.21.08.4.21.58.38.18.17.34.41.51.73l9.23,18.09c.33.62.65,1.27.95,1.94"/>
          <path class="cls-2" d="m623.45,145.32h-6.45c-.72,0-1.32-.17-1.78-.51-.47-.33-.79-.76-.97-1.28l-2.12-6.21h-13.64l-2.12,6.21c-.17.46-.48.86-.96,1.23-.48.37-1.06.55-1.75.55h-6.5l13.88-35.62h8.52l13.88,35.62Zm-23.04-13.62h9.8l-3.3-9.75c-.21-.62-.46-1.35-.75-2.2-.28-.84-.57-1.74-.85-2.72-.26.99-.53,1.92-.81,2.76-.28.85-.54,1.58-.79,2.2l-3.3,9.71Z"/>
          <path class="cls-2" d="m644.79,132.4c0,1.99-.25,3.8-.75,5.43-.5,1.63-1.25,3.02-2.26,4.19-1.01,1.17-2.28,2.07-3.8,2.71-1.53.64-3.32.96-5.39.96-.93,0-1.86-.04-2.77-.14-.91-.1-1.86-.26-2.84-.49l.44-4.82c.03-.42.2-.76.5-1.03.31-.26.73-.38,1.27-.38.28,0,.62.04,1.03.13.41.1.9.14,1.48.14.8,0,1.51-.1,2.1-.33.6-.22,1.1-.58,1.49-1.1.4-.52.69-1.19.88-2.02.2-.83.3-1.86.3-3.08v-22.89h8.32v22.72Z"/>
          <path class="cls-2" d="m666.37,138.79c1.11,0,2.11-.19,2.99-.55.87-.37,1.62-.89,2.23-1.58.61-.68,1.07-1.51,1.39-2.5.32-.99.48-2.11.48-3.36v-21.11h8.32v21.11c0,2.18-.36,4.19-1.07,6.02-.71,1.82-1.73,3.4-3.06,4.72-1.33,1.32-2.95,2.34-4.85,3.08-1.9.73-4.05,1.09-6.42,1.09s-4.55-.37-6.45-1.09c-1.9-.74-3.52-1.76-4.85-3.08-1.33-1.32-2.35-2.9-3.05-4.72-.71-1.83-1.06-3.83-1.06-6.02v-21.11h8.32v21.08c0,1.26.16,2.38.48,3.36.32.99.78,1.83,1.39,2.52.61.7,1.35,1.22,2.23,1.6.88.36,1.87.55,2.99.55"/>
        </g>
      </g>
    </g>
  </g>
</svg>