<?xml version="1.0" encoding="UTF-8"?>
<svg id="Layer_2" data-name="Layer 2" xmlns="http://www.w3.org/2000/svg" viewBox="0 0 1212.5 1432.48">
  <defs>
    <style>
      .cls-1 {
        fill: #390000;
      }

      .cls-1, .cls-2, .cls-3, .cls-4, .cls-5, .cls-6, .cls-7, .cls-8, .cls-9, .cls-10, .cls-11, .cls-12, .cls-13, .cls-14, .cls-15, .cls-16, .cls-17, .cls-18, .cls-19, .cls-20, .cls-21, .cls-22, .cls-23, .cls-24, .cls-25, .cls-26, .cls-27, .cls-28, .cls-29, .cls-30, .cls-31, .cls-32, .cls-33, .cls-34, .cls-35, .cls-36, .cls-37, .cls-38, .cls-39 {
        stroke-width: 0px;
      }

      .cls-2 {
        fill: #ef0000;
      }

      .cls-3 {
        fill: #d10000;
      }

      .cls-4 {
        fill: #b60000;
      }

      .cls-5 {
        fill: #8d0000;
      }

      .cls-6 {
        fill: #ed0000;
      }

      .cls-7 {
        fill: #e60000;
      }

      .cls-8 {
        fill: #c30000;
      }

      .cls-9 {
        fill: #b30000;
      }

      .cls-10 {
        fill: #d50000;
      }

      .cls-11 {
        fill: #cd0000;
      }

      .cls-12 {
        fill: #a90000;
      }

      .cls-14 {
        fill: #5a0000;
      }

      .cls-15 {
        fill: #bf0000;
      }

      .cls-16 {
        fill: #380000;
      }

      .cls-17 {
        fill: #df0000;
      }

      .cls-18 {
        fill: red;
      }

      .cls-19 {
        fill: #b90000;
      }

      .cls-20 {
        fill: #ca0000;
      }

      .cls-21 {
        fill: #d60000;
      }

      .cls-22 {
        fill: #350000;
      }

      .cls-23 {
        fill: #c70000;
      }

      .cls-24 {
        fill: #e10000;
      }

      .cls-25 {
        fill: #340000;
      }

      .cls-26 {
        fill: #4a0000;
      }

      .cls-27 {
        fill: #f30000;
      }

      .cls-28 {
        fill: #e30000;
      }

      .cls-29 {
        fill: #b40000;
      }

      .cls-30 {
        fill: #c20000;
      }

      .cls-31 {
        fill: #1e0000;
      }

      .cls-32 {
        fill: #c00000;
      }

      .cls-33 {
        fill: #ea0000;
      }

      .cls-34 {
        fill: #e80000;
      }

      .cls-35 {
        fill: #460000;
      }

      .cls-36 {
        fill: #eb0000;
      }

      .cls-37 {
        fill: #f40000;
      }

      .cls-38 {
        fill: #f50000;
      }

      .cls-39 {
        fill: #2b0000;
      }
    </style>
  </defs>
  <g id="Layer_1-2" data-name="Layer 1">
    <g>
      <polygon class="cls-18" points="497.43 251.09 493 251.42 493.46 253.59 497.43 251.09"/>
      <path class="cls-5" d="m106.48,1340.29s-3.52,35.48-3.93,64.83c-.15,11.08,54.16,20.81,123.42,27.36l-119.37-92.32-.12.13Z"/>
      <path class="cls-18" d="m103.45,479.15c2.75,4.66,6.01,9.33,9.58,13.53l54.06-33.97-49.89-33.12-13.74,53.57Z"/>
      <polygon class="cls-6" points="117 157.91 175.69 211.44 207.04 89.24 117 157.91"/>
      <polygon class="cls-38" points="175.21 207.69 158.44 273.07 240.15 266.92 175.21 207.69"/>
      <polygon class="cls-37" points="547.33 282.12 546.87 279.95 290.93 299.2 384.43 384.49 547.33 282.12"/>
      <g>
        <polygon class="cls-9" points="524.87 770.1 456.31 815.88 589.79 822.99 524.87 770.1"/>
        <polygon class="cls-9" points="222.05 924.51 340.23 1016.79 460.11 1014.21 352.93 837.1 222.05 924.51"/>
        <polygon class="cls-9" points="526 937.9 537.79 921.15 423.35 831 377.93 861.33 485.11 1038.44 510.92 1037.89 553.67 978.11 526 937.9"/>
        <polygon class="cls-9" points="671.32 837.18 616.22 915.53 652.44 944.06 632.1 972.49 672 1030.48 684.27 1030.22 717.17 874.53 671.32 837.18"/>
        <path class="cls-9" d="m853.75,919.04c-.16-11.85-.79-20.46,1.3-25.18,2.68-6.07,7.1-16.21,7.03-29.15l-47.61-38.79,6.62,92.74,32.66.38Z"/>
        <path class="cls-9" d="m779.11,937.73l-6.62-92.74-4.65-3.78-32.9,155.69,71.62-1.54c2.38-14.81,4.87-35.34,5.17-46.32.1-3.9.09-7.53.05-10.92l-32.66-.38Z"/>
        <polygon class="cls-9" points="567.87 1038.44 650.53 1036.66 610.63 978.67 567.87 1038.44"/>
        <polygon class="cls-9" points="607.76 972.49 628.09 944.06 591.88 915.53 580.09 932.28 607.76 972.49"/>
        <polygon class="cls-9" points="609.2 853.93 589.79 838.11 456.31 831 439.66 842.12 554.1 932.27 609.2 853.93"/>
      </g>
      <path class="cls-18" d="m679.37,684.97c-7.72-24.4-15.13-47.16-15.13-47.16l-8.43-14.65-34.67,23.15,58.24,38.66Z"/>
      <polygon class="cls-15" points="559.04 726.47 619.31 775.57 624.26 682.91 559.04 726.47"/>
      <path class="cls-15" d="m836.54,717.41l-58.24-38.66-27.69,18.49,91.97,39.46c-1.95-6.29-4.01-12.84-6.05-19.29Z"/>
      <g>
        <polygon class="cls-15" points="865.52 854.34 887.87 872.54 892.66 838 865.52 854.34"/>
        <path class="cls-15" d="m1038.06,871l-26.9,3.47,18.49,15.06,10.46-9c-.53-3.23-1.21-6.38-2.04-9.53Z"/>
        <path class="cls-15" d="m1069.43,882.54l-10.46,9,11.93,9.72c-.04-6.89-.52-12.94-1.47-18.72Z"/>
        <path class="cls-15" d="m998.17,865.84c-3.37-10.73-3.88-19.1-3.88-19.1,0,0,1.22-6.91,3.3-14.5,1.06-3.88,1.42-13.79,1.12-24.53l-28.29,17.02,29.25,46.28c-.46-1.71-.95-3.43-1.5-5.17Z"/>
        <path class="cls-15" d="m975,876.34l-29.25-46.28-6.75,4.06-4.79,34.54,13.95,11.37,26.9-3.47c-.02-.08-.04-.15-.06-.23Z"/>
      </g>
      <polygon class="cls-15" points="760.17 750.66 722.7 791.83 767.32 828.18 809.91 770.12 760.17 750.66"/>
      <path class="cls-15" d="m855.17,787.07c-.44-4.92-1.03-9.47-1.76-13.07-.66-3.26-2.6-10.15-5.2-18.89l-16.66,22.71,23.63,9.24Z"/>
      <path class="cls-15" d="m893.45,791.83l-23.63-9.24-42.59,58.06,4.92,4.01,62.18-37.42c-.15-5.14-.44-10.46-.89-15.4Z"/>
      <path class="cls-15" d="m731.74,765.73l16.66-22.71c-1.65-5.54-3.57-11.82-5.62-18.41l-91.97-39.46-7.23,4.83-4.95,92.66,5.9,4.8,37.46-41.17,49.74,19.46Z"/>
      <path class="cls-18" d="m18.33,1003.85c.76,5.8,1.79,11.19,3.16,15.99l236.92-5.1-118.19-92.29-121.89,81.4Z"/>
      <polygon class="cls-18" points="592.12 401.82 585.96 400.1 584.67 402.71 592.12 401.82"/>
      <g>
        <path class="cls-20" d="m1140.96,1075.55l-23.71.28,20.85,25.94,2.63-.31c0-.95-.01-1.87-.02-2.76-.01-5.71.06-14.18.24-23.15Z"/>
        <path class="cls-20" d="m1102.87,1052.25l-17.04-16.9h-2.93l-15.48,26.18,11.03,13.71,23.71-.28c.15-7.69.39-15.73.72-22.71Z"/>
        <polygon class="cls-20" points="1025.17 1076.98 1044.44 1076.75 1033.41 1063.04 1025.17 1076.98"/>
        <polygon class="cls-20" points="907.9 1031.44 892.97 1082.64 929.26 1082.21 937.5 1068.27 907.9 1031.44"/>
        <polygon class="cls-20" points="824.38 1114.69 840.96 1118.56 851.68 1081.77 841.62 1081.89 824.38 1114.69"/>
        <polygon class="cls-20" points="1005.15 1040.23 990.42 1040.23 965.11 1022.22 962.19 1022.29 960.06 1029.58 989.67 1066.41 1005.15 1040.23"/>
        <path class="cls-20" d="m1165.28,1108.84c-.02-1.25-.03-2.46-.04-3.64l-2.63.31,2.67,3.33Z"/>
        <polygon class="cls-20" points="526.31 1082.98 521.15 1095.27 533.32 1098.11 544.46 1083.15 526.31 1082.98"/>
        <polygon class="cls-20" points="1147.29 1037.85 1146.2 1039.69 1149.14 1039.69 1147.29 1037.85"/>
        <path class="cls-20" d="m1167.57,1039.69h-18.43s17.04,16.9,17.04,16.9c.35-7.41.81-13.61,1.39-16.9Z"/>
        <path class="cls-20" d="m1101.11,1087.31l-2.67-3.33-29.8,3.51v32.05l33-3.42c-.13-10.63-.41-20.55-.53-28.8Z"/>
        <polygon class="cls-20" points="508.74 1024.89 406.81 1027.09 464.48 1072.12 488.83 1072.34 508.74 1024.89"/>
        <polygon class="cls-20" points="931.97 1083.49 935.69 1086.39 936.47 1084.54 931.97 1083.49"/>
        <polygon class="cls-20" points="503.17 1078.26 478.83 1078.04 493.52 1089.51 498.01 1090.56 503.17 1078.26"/>
        <polygon class="cls-20" points="541.8 1093.33 541.02 1095.18 549.67 1101.93 553.96 1096.17 541.8 1093.33"/>
        <polygon class="cls-20" points="1034.05 1151.11 1013.2 1125.17 993.93 1125.4 976.25 1155.28 976.78 1189.51 1004.25 1186.66 1004.25 1154.62 1034.05 1151.11"/>
        <polygon class="cls-20" points="628.48 1105.84 624.19 1111.6 700.47 1171.16 718.97 1169.24 738.75 1131.6 628.48 1105.84"/>
        <polygon class="cls-20" points="954.59 1081.62 918.31 1082.05 907.59 1118.84 891.02 1114.96 871.23 1152.6 937.45 1145.73 936.92 1111.5 954.59 1081.62"/>
        <polygon class="cls-20" points="952.02 1022.29 944.17 1022.46 949.9 1029.58 952.02 1022.29"/>
        <polygon class="cls-20" points="1039.55 1001.04 1054.28 1001.04 1055.37 999.21 1038.53 982.51 1014.24 983.03 1039.55 1001.04"/>
        <polygon class="cls-20" points="1110.76 1016.24 1083.7 1016.82 1100.54 1033.52 1110.76 1016.24"/>
        <polygon class="cls-20" points="640.99 1090.58 622.74 1041.37 611.28 1041.62 575.29 1089.97 640.99 1090.58"/>
        <polygon class="cls-20" points="673.91 1074.54 662.78 1089.5 773.05 1115.27 790.28 1082.48 800.34 1082.36 815.26 1031.16 809.53 1024.03 721.37 1025.93 739.62 1075.14 673.91 1074.54"/>
        <polygon class="cls-20" points="528.31 1080.79 564.3 1032.43 530.08 1033.17 510.17 1080.62 528.31 1080.79"/>
        <g>
          <polygon class="cls-20" points="1157.94 1019.32 1163.76 1019.32 1162.4 1016.64 1157.94 1019.32"/>
          <polygon class="cls-20" points="1141.54 1022.68 1143.39 1024.51 1149.4 1024.51 1146.14 1014.91 1141.54 1022.68"/>
          <polygon class="cls-20" points="1151.41 1009.6 1148.27 1014.91 1151.52 1024.51 1153.17 1024.51 1157.62 1021.83 1151.41 1009.6"/>
          <path class="cls-20" d="m1207.23,1014.02l-.07,4.62h3.18c.19-1.08.4-1.85.62-2.24.41-.72.94-2.7,1.55-5.55l-5.27,3.18Z"/>
          <polygon class="cls-20" points="1188.12 1017.3 1189.49 1019.98 1191.27 1019.98 1191.33 1015.36 1188.12 1017.3"/>
          <polygon class="cls-20" points="1188.35 1001.38 1181.2 1001.53 1179.5 1004.4 1188.26 1007.96 1188.35 1001.38"/>
          <path class="cls-20" d="m1193.48,1014.69l5.27-3.18c.17-.8.34-1.66.52-2.59l-5.68-2.31-.12,8.08Z"/>
          <polygon class="cls-20" points="1173.4 1003.58 1173.52 995.5 1164.77 991.94 1163.97 993.28 1170.19 1005.52 1173.4 1003.58"/>
          <path class="cls-20" d="m1207.91,994.76c.5-2.6,1.04-5.67,1.58-9.04l-7.16.15-.1,6.58,5.68,2.31Z"/>
        </g>
      </g>
      <g>
        <path class="cls-36" d="m689.56,585.8l-13.13-22.41s-1.36-6.81-1.69-8.86c-.32-1.95-2.57-7.8-5.88-10.33l-33.35,32.97,54.05,8.63Z"/>
        <polygon class="cls-36" points="544.07 513.16 468.17 577.02 534.33 587.59 546.14 523.27 544.07 513.16"/>
        <polygon class="cls-36" points="310.12 522.89 399.4 582.16 413.38 584.4 421.04 506.82 310.12 522.89"/>
        <polygon class="cls-36" points="506.45 486.18 432.17 496.94 424.51 574.51 435.94 576.34 511.83 512.48 506.45 486.18"/>
        <path class="cls-36" d="m619.84,535.32c-.15-.12-.3-.23-.46-.33-3.56-2.31-11.62-5.31-11.62-5.31,0,0-6-10.5-7.44-11.94s-9.31-4.94-9.31-4.94l-2.12-10.34-11.81,64.32,9.41,1.5,33.35-32.97Z"/>
      </g>
      <path class="cls-18" d="m596.07,1097.58l-145.19,15.06,125.81,98.23c9.43-30.68,17.94-60.43,18.79-75.75.69-12.49.74-25.48.59-37.55Z"/>
      <polygon class="cls-2" points="577.23 699.96 611.9 676.81 590.83 640.21 581.86 624.89 426.86 600.13 577.23 699.96"/>
      <path class="cls-11" d="m501.87,680.95l-150.37-99.83-134.41-21.47c0,1.96.01,3.17.01,3.17v33l-.67,1.03,185.3,150.96,100.14-66.87Z"/>
      <path class="cls-7" d="m401.73,747.82l-185.3-150.96-111.29,172.26-5.49-1-1.41-8.53.4-10.47s-18.56,15.32-21.82,21.83c0,0-3.27.91-4.74,2.94-1.48,2.03-1.29,2.5-2.13,2.53-.84.03-2.34-1.97-3.38-2.69-1.03-.72-1.12-1.19-2.34-.91-1.22.28-2.59.94-4.05,1.85-1.46.91-6.03,5.4-6.03,5.4,0,0-6.76,12.56-7.23,19.5s-6.5,10.95-6.5,10.95l-1.97,2.76-3.44,2.34s-9.37,8.98-13.71,13.96l118.92,92.86,261.52-174.64Z"/>
      <path class="cls-10" d="m77.95,415.13s-2.35,5.95-1.35,9.45,7.96,11.75,7.96,11.75c0,0,7.25,11.12,10.92,24.96,1.33,5.01,4.17,11.41,7.98,17.86l13.74-53.57-47.92-31.81c-.05,1.32-.15,2.36-.31,2.89-.7,2.33,8.98,18.47,8.98,18.47Z"/>
      <path class="cls-29" d="m262.22,521.86l-45.34,6.57c.15.68.23,1.28.22,1.78-.1,4.72-.04,22.22-.01,29.45l134.41,21.47-89.28-59.27Z"/>
      <path class="cls-3" d="m13.75,847.75c-.69,4.78-.69,8.11-.69,8.11l1.82,13.3,3.51,6.87,4.83,14.42s-10.73,68.58-4.89,113.4l121.89-81.4-118.92-92.86c-.69.79-1.26,1.48-1.64,2.02-2.76,3.92-5.22,11.35-5.91,16.14Z"/>
      <path class="cls-4" d="m167.09,458.7l-54.06,33.97c5.15,6.05,10.94,11.1,16.78,13.61,15.5,6.67,47.33,2.83,58.17-2.33s13.67-5.37,13.67-5.37l3.1,4.85s10.5,17.48,12.14,25l45.34-6.57-95.13-63.15Z"/>
      <path class="cls-4" d="m625.25,1362.55l-45,21.47,46.81,11.9c2.61-9.92.1-20.81-1.8-33.37Z"/>
      <path class="cls-19" d="m456.24,1419.31c60.1.48,108.28-2.53,118.15-10.27,7.28-5.7,11-11.62,12.66-17.92l-46.81-11.9-84.01,40.08Z"/>
      <g>
        <polygon class="cls-24" points="607.11 1252.83 616.02 1259.72 615.3 1245.51 607.11 1252.83"/>
        <polygon class="cls-24" points="671.04 1232.68 661.93 1236.6 662.38 1225.53 647.93 1213.6 628.12 1231.29 628.84 1245.5 673.14 1279.75 689.93 1248.27 671.04 1232.68"/>
        <polygon class="cls-24" points="745.31 1223.09 736.65 1215.94 736.2 1227.01 745.31 1223.09"/>
        <polygon class="cls-24" points="943.9 1264.06 948.78 1213.47 936.11 1203.58 914.06 1245.72 943.9 1264.06"/>
        <path class="cls-24" d="m1059.75,1277.02l3.8-1.91c.63-2.06,1.27-4.16,1.93-6.28l-6.93-4.26,1.2,12.45Z"/>
        <polygon class="cls-24" points="815.74 1205.7 775.81 1222.9 794.7 1238.5 777.91 1269.97 821.7 1303.83 848.37 1252.83 820.7 1235.83 815.74 1205.7"/>
        <polygon class="cls-24" points="1036.22 1264.77 1030.78 1208.42 1027.29 1205.7 1022.42 1256.29 1036.22 1264.77"/>
        <polygon class="cls-24" points="974.75 1258.99 971.87 1288.91 989.75 1279.92 988.55 1267.47 974.75 1258.99"/>
        <path class="cls-24" d="m99.84,1175.19c3.19,18.52,8.16,47.15,9.49,53.14,1.83,8.27.94,34.8,3.48,44.35l39.6,10.07,49.04-118.1-101.6,10.54Z"/>
        <path class="cls-24" d="m1124.36,1254.39c4.02-13.02,8.47-27.1,12.74-41l-25.11-19.6,5.44,56.34,6.93,4.26Z"/>
        <polygon class="cls-24" points="851.01 1361.79 866.18 1349.95 869.58 1314.65 768.67 1365.38 776.83 1367.45 846.95 1354.39 851.01 1361.79"/>
        <polygon class="cls-24" points="799.2 1348.2 729.08 1361.26 779.58 1374.1 803.27 1355.6 799.2 1348.2"/>
        <polygon class="cls-24" points="929.61 1354.55 942.24 1357.76 960.46 1349.07 953.3 1336.05 929.61 1354.55"/>
        <polygon class="cls-24" points="798.18 1285.73 768.34 1267.4 741.66 1318.39 697.88 1284.54 659.03 1357.39 694.38 1366.38 795.29 1315.66 798.18 1285.73"/>
        <path class="cls-24" d="m966.34,1346.26l20.9-9.97c-1.19-7.83-2.13-16.31-1.45-25.61l-17.33,13.53-2.12,22.05Z"/>
        <polygon class="cls-24" points="904.13 1343.63 911.29 1356.65 917.17 1353.84 919.29 1331.79 904.13 1343.63"/>
        <path class="cls-24" d="m1086.89,1268.87l.78,8.11c.96-3.23,1.97-6.58,3.02-10.02l-3.8,1.91Z"/>
        <path class="cls-24" d="m941.02,1293.98l-3.4,35.3,17.33-13.53c.38-5.24,1.28-10.74,2.95-16.53.57-1.98,1.17-4.03,1.79-6.12l-.78-8.11-17.89,8.99Z"/>
        <polygon class="cls-24" points="618.02 1261.59 623.47 1368.7 623.47 1368.7 662.32 1295.84 618.02 1261.59"/>
        <polygon class="cls-24" points="537.32 1267.13 545.52 1259.81 541.91 1188.85 537.26 1189.33 508.32 1317.13 448.73 1290.04 468.6 1360.01 551.69 1381.13 546.24 1274.02 537.32 1267.13"/>
        <polygon class="cls-24" points="754.39 1224.09 794.32 1206.88 787.2 1163.62 764.46 1145.86 748.57 1147.51 745.73 1216.94 754.39 1224.09"/>
        <polygon class="cls-24" points="657.71 1220.94 672.16 1232.87 674.99 1163.43 634.29 1167.66 637.9 1238.62 657.71 1220.94"/>
        <polygon class="cls-24" points="305.95 1261.54 323.35 1269.45 317.41 1248.53 305.95 1261.54"/>
        <polygon class="cls-24" points="894.22 1187.7 855.98 1157.84 863.1 1201.1 894.22 1187.7"/>
        <polygon class="cls-24" points="831.2 1241.38 858.87 1258.39 880.92 1216.24 857.36 1197.84 826.24 1211.25 831.2 1241.38"/>
        <polygon class="cls-24" points="259.94 1240.48 271.41 1227.47 252.1 1159.49 205.04 1164.37 156.01 1282.47 297.22 1318.36 277.35 1248.39 259.94 1240.48"/>
        <polygon class="cls-24" points="379.96 1272.04 439.56 1299.13 468.49 1171.33 441.86 1174.1 374.02 1251.12 379.96 1272.04"/>
        <polygon class="cls-24" points="406.46 1167.19 319.32 1176.23 338.62 1244.21 406.46 1167.19"/>
      </g>
      <path class="cls-30" d="m121.48,1286.92c.23.86.48,1.6.77,2.16,3.5,6.75,11,9,10.5,14s-8.75,12-8.75,12l-4.63,5.12,119.37,92.32c53.57,5.07,116.08,8.24,169.27,8.67l84.01-40.08-370.54-94.19Z"/>
      <path class="cls-27" d="m258.41,1014.75l-236.92,5.1c.53,1.85,1.1,3.61,1.73,5.27,14.92,39.33,69.76,132.81,69.76,132.81,0,0,1.15,6.78,2.76,16.12l323.68-33.58-161.01-125.72Z"/>
      <polygon class="cls-34" points="237.05 270.67 155.35 276.82 117.19 425.58 167.09 458.7 330.56 355.97 237.05 270.67"/>
      <path class="cls-12" d="m686.14,233.32l.42-9.62s-.29-21.47-4.01-41.51l-92.89,58.38,96.48-7.26Z"/>
      <g>
        <polygon class="cls-24" points="687.02 382.33 666.96 371.6 648.84 388.22 667.07 422.28 682.1 430.98 685.98 425.03 675.02 389 687.02 382.33"/>
        <path class="cls-24" d="m698.68,383.72l10.97,36.03,8.08-12.38,15.24-1.82,1.28-2.61-14.56-4.07s2.2-6.45,4.77-14.45l-13.78-7.37-12,6.67Z"/>
        <path class="cls-24" d="m569.72,254.66l-3.97,2.5,9.25,43.05c12.41-19.22,25.24-39.46,30.81-48.26l-36.09,2.71Z"/>
        <polygon class="cls-24" points="775.54 251.94 758.93 253.19 774.73 270.28 775.54 251.94"/>
        <polygon class="cls-24" points="640.22 367.65 611.68 352.38 616.13 373.11 622.11 384.27 640.22 367.65"/>
        <polygon class="cls-24" points="642.87 377.06 645.86 390.96 648.84 388.22 642.87 377.06"/>
        <path class="cls-24" d="m657.47,330.19l-33.3-14.48,11.09-41.69-20.75-21.99-6.68.5c-5.57,8.81-18.4,29.05-30.81,48.26l11.08,51.58,28.54,15.27,40.83-37.46Z"/>
        <polygon class="cls-24" points="630.5 388.22 627.51 390.96 632.17 412.69 648.73 422.28 630.5 388.22"/>
        <path class="cls-24" d="m778.56,393.05c1.88-5.85,3.96-12.51,5.52-18.09l-19.29,10.72,13.78,7.37Z"/>
        <polygon class="cls-24" points="739.09 430.98 724.07 422.28 734.84 442.4 737.52 433.39 739.09 430.98"/>
        <path class="cls-24" d="m650.52,412.69l8.08,37.62c1.35-.62,2.09-1,2.09-1l11.25-5.75.81,15.98,5.1-17.14-10.77-20.12-16.55-9.59Z"/>
        <polygon class="cls-24" points="673.62 253.94 646.48 255.98 667.23 277.97 673.62 253.94"/>
        <path class="cls-24" d="m768.45,335.74c.2-1.81.4-3.65.61-5.52l-4.28,3.93,3.67,1.59Z"/>
        <path class="cls-24" d="m648.61,371.6l20.06,10.73,19.29-10.72c1.28-4.58,2.22-8.43,2.4-10.47.26-2.84,1.39-13.24,2.74-25.41l-3.67-1.59-40.83,37.46Z"/>
        <path class="cls-24" d="m735.14,308.59c1.38-12.35,2.46-21.97,2.46-21.97l1.42-2.04,5.94-.88-7.06-2.1.5-11.32-15.8-17.09-9.96.75-6.39,24.03,28.9,30.62Z"/>
        <path class="cls-24" d="m647.75,315.71l33.3,14.48,4.28-3.93c.81-7.28,1.65-14.86,2.41-21.62l-28.9-30.62-11.09,41.69Z"/>
      </g>
      <path class="cls-23" d="m172.12,458.7l95.13,63.15,185.19-26.84-2.68-13.07s-6.53-14.75-12.02-18.25c-5.48-3.5-19.48-13-31.73-16l-2.32-29.62-68.1-62.11-163.47,102.74Z"/>
      <g>
        <polygon class="cls-23" points="592.4 140.19 584.3 169.62 589.9 195.72 641.56 195.72 665.56 180.64 652.63 135.12 592.4 140.19"/>
        <polygon class="cls-23" points="649.08 60.17 629.91 76.58 613.2 137.25 665.56 118.16 649.08 60.17"/>
        <polygon class="cls-23" points="567.01 143.88 573.08 172.11 581.18 142.69 567.01 143.88"/>
        <path class="cls-23" d="m704.04,167.37l-.73,1.04.83-.52c-.03-.17-.06-.35-.1-.52Z"/>
        <polygon class="cls-23" points="576.67 98.71 536.49 133.11 543.43 165.42 559.95 159.39 576.67 98.71"/>
        <polygon class="cls-23" points="556.52 224.61 560.96 224.28 602.5 198.17 550.84 198.17 556.52 224.61"/>
        <path class="cls-23" d="m641.42,60.63l-3.73-13.14c-2.01-1.48-4.06-2.88-6.14-4.19l-9.29,33.73,19.17-16.41Z"/>
        <path class="cls-23" d="m572.53,54.55c-20.19-12.76-43.42-17.77-67.72-16.79l18.24,84.92,40.19-34.4,9.29-33.73Z"/>
        <path class="cls-23" d="m652.21,48.97c-3.13-2.92-6.36-5.6-9.68-8.04l3.73,13.14,5.95-5.09Z"/>
        <polygon class="cls-23" points="772.83 120.7 770.92 127.63 831.14 122.56 825.19 101.61 772.83 120.7"/>
        <path class="cls-23" d="m744.85,180.81l32.31-2.72c-2.85-8.67-6.53-18.2-11.28-28.07l-26.98,9.84,5.95,20.95Z"/>
        <polygon class="cls-23" points="605.53 137.71 589 143.74 589.45 145.84 603.62 144.64 605.53 137.71"/>
        <path class="cls-23" d="m687.04,137.95l26.98-9.84c-7.11-14.77-16.6-30.29-29.32-44.81-2.64-3.01-5.37-5.82-8.19-8.44l-5.95,5.09,16.48,57.99Z"/>
        <g>
          <polygon class="cls-23" points="990.24 185.9 991.7 181.09 988.24 181.97 990.24 185.9"/>
          <path class="cls-23" d="m997.97,179.49c-.7-3.19-1.55-6.76-2.58-10.62l-3.7,12.22,6.28-1.6Z"/>
          <path class="cls-23" d="m969.24,175.45l3.46-.88,3.7-12.22c-.86-3.22-1.84-6.65-2.97-10.24l-13.44,5.17,9.25,18.17Z"/>
          <path class="cls-23" d="m1013.8,186.79c-.02-.1-.04-.2-.06-.3-.36-1.87-.78-3.95-1.27-6.21l-6.28,1.6-1.46,4.81,2.46,4.83,5.87-3.69.73-1.04Z"/>
          <polygon class="cls-23" points="957.53 200.03 955.53 196.11 934.68 201.43 939.34 217.85 955.15 207.91 955.15 207.91 957.53 200.03"/>
          <polygon class="cls-23" points="905.01 180.77 894.01 185 891.02 195.89 893.4 204.26 914.26 198.94 905.01 180.77"/>
          <polygon class="cls-23" points="968.85 187.26 968.85 187.26 973.7 184.21 971.24 179.38 968.85 187.26"/>
          <polygon class="cls-23" points="895.47 181.33 891.91 174.34 887.45 174.72 884.47 185.56 895.47 181.33"/>
          <path class="cls-23" d="m934.41,172.84c-.33-1.04-.66-2.09-1.01-3.16l-15.98,1.35,3.55,6.99,13.44-5.17Z"/>
          <polygon class="cls-23" points="853.04 171.54 841.18 172.54 844.58 184.49 850.06 182.38 853.04 171.54"/>
          <polygon class="cls-23" points="877.2 187.77 879.69 196.56 882.69 185.66 877.2 187.77"/>
        </g>
      </g>
      <g>
        <polygon class="cls-12" points="632.36 441.14 647.21 410.63 640.15 377.77 588.49 418.2 632.36 441.14"/>
        <polygon class="cls-12" points="654.98 474.19 679.1 486.8 669.83 443.68 654.98 474.19"/>
        <path class="cls-12" d="m486,377.77l41.75,21.83,51.66-40.43-17.81-82.91-162.9,102.38,68.1,62.11-1.93-24.63s4.3,10.6,12.25,23.1l27.84-21.78-18.96-39.67Z"/>
        <path class="cls-12" d="m562.49,407.53l-22.79,17.84,29.54,61.82c3.26.05,6.46-.01,9.6-.18l27.52-56.54-43.87-22.94Z"/>
        <path class="cls-12" d="m679.1,486.8l-24.12-12.61-27.52,56.54c28.33-1.49,51.21-11.07,58.02-14.21l-6.38-29.72Z"/>
        <path class="cls-12" d="m489.07,439.23c11.12,17.5,29.38,38.73,53,39.9,1.47.07,2.93.11,4.38.13l-29.54-61.82-27.84,21.78Z"/>
        <polygon class="cls-12" points="516.9 417.44 539.7 399.6 497.94 377.77 516.9 417.44"/>
      </g>
      <path class="cls-8" d="m312.04,3.61c-4.73-.83-9.07-1.49-12.77-1.93-16.02-1.9-41.29-3.19-67.49,1.91l-19.53,76.13L312.04,3.61Z"/>
      <path class="cls-33" d="m172.12,211.44l-58.69-53.54-56.12,42.8c-2.26,14.35-4.32,31.86-4.21,33,.12,1.25,2.11,7.91,2.91,9.64.8,1.73.89,1.9.89,1.9,0,0,3.08,5.41,3.31,6.21.23.8,2.84,6.89,3.5,8.96s2.94,11.12,3.36,15.96c.14,1.67.26,4.22.29,7.07l88-6.62,16.77-65.38Z"/>
      <path class="cls-32" d="m76.43,124.16c-2.61,6.52-6.14,15.65-8.04,21.79-3.17,10.25-7.92,35.75-10.42,50.62-.22,1.33-.45,2.72-.67,4.13l56.12-42.8-37-33.75Z"/>
      <path class="cls-28" d="m183.67,227.45l64.93,59.23,255.94-19.25-42.98-200.1c-12.21.5-24.7,2.49-37.21,5.79l-10.44-8.23s-12.07-9.49-26.36-16.46c-12.01-5.86-47.84-14.92-72.76-19.3l-99.79,76.1-31.35,122.21Z"/>
      <path class="cls-17" d="m212.2,85.6l19.53-76.13c-11.81,2.3-23.81,5.9-35.24,11.34-36.77,17.5-87.52,57.54-91.02,62.65s-15.79,25.02-15.79,25.02c0,0-.84,3.19-1.26,4.12-.17.37-1.5,3.57-3.24,7.92l37,33.75,90.04-68.67Z"/>
      <path class="cls-21" d="m155.35,276.82l-88,6.62c.06,5.41-.17,11.91-1.04,15.51-1.33,5.5-7,22.75-7,22.75,0,0-5.08,11.5-12.52,21.62s-6.12,16.38-6.06,17.44,7.56,6.94,11.12,9.12,5.94,2.69,5.94,2.69l9.3,3.19s1.68,1.12,1.87,3.69c.15,1.98.49,9.8.31,14.32l47.92,31.81,38.16-148.76Z"/>
      <path class="cls-14" d="m112.11,416.27c3.46-.26,7.7-.25,11.23-.17-5.35-.66-11.68-.8-16.88-.07,2.07.23,3.96.36,5.65.24Z"/>
      <path class="cls-13" d="m84.56,434.94c3.77-.8,7.07-1.49,10.03-2.15-3.94.55-7.14.74-7.88.66-.98-.11-2.86-2.62-4.41-4.94-3.22-3.24-6.24-8.18-1.93-13.07,2.27.12,4.41.25,6.46.38-3.32-.41-6.16-.99-7.62-1.7-.35-.17-.8-.98-1.26-2-2.13-3.48-6.21-10.6-6.11-14.05,0,0,11.61.91,20.99,4.31,8.19,2.96,24.29,7.73,33.81,12.06,1.71.39,2.75.68,2.85.85.44.73-19.15-.96-23.8.52-.12.04-.25.07-.38.11.39.05.77.09,1.15.14,5.21-.73,11.54-.6,16.88.07-3.53-.08-7.77-.08-11.23.17-1.7.12-3.59,0-5.65-.24-1.29.18-2.5.42-3.61.71,4.22.18,7.86.21,11.1-.03,3.71-.27,8.19-.29,12.1-.22,1.86.31,3.54.69,4.89,1.11,0,0-3.53,1.14-6.94,2.47-3.63,1.91-8.86,4.93-12.53,7.67-.03.02-.07.05-.1.07,3.06-1.32,6.07-2.95,9.44-5.11,2.8-1.8,9.88-4.29,13.03-5.36.02.5.05,1.03.07,1.59-1.87.65-9.96,3.58-16,7.95-3.26,2.36-15.92,11.01-15.92,11.01,0,0,18.56-10.45,25.47-13.08,3.43-1.3,5.43-2.25,6.58-2.88.03.82.07,1.66.1,2.53.26,6.74-.11,13.14-.11,13.14,0,0,1.23-10.19,2.43-14.6,1.2-4.42-2.85-10.63-2.85-10.63,0,0,.07,1.34.16,3.51-10.63-5.61-31.66-10.85-42.12-14.63l-10.39-3.41s-6.85-2.01-11.59-1.98c-.4.77-.85,1.54-1.4,2.29,0,0,.1-.86.23-2.24-.55.05-1.06.14-1.5.28-.16,5.48,8.66,18.85,8.66,18.85-7.74,8.44,3.06,17.05,6.56,19.49-.57-.99-.93-1.53-.93-1.53,1.16.45,2.25,1.11,3.28,1.94Z"/>
      <path class="cls-14" d="m97.27,416.49c1.85.51,3.6.81,4.99.41.19-.06.39-.1.59-.16-1.57-.07-3.22-.15-4.97-.25-.2,0-.4,0-.6,0Z"/>
      <path class="cls-14" d="m102.84,416.74c1.12-.29,2.33-.53,3.61-.71-.38-.04-.76-.09-1.15-.14-1.6.41-4.32.6-7.44.6,1.75.1,3.4.18,4.97.25Z"/>
      <path class="cls-14" d="m56.71,244.9c2.96,5.3,5.24,10.47,6.96,15.49,0,0,.02.01.03.02-3.02-9.83-6.99-15.51-6.99-15.51Z"/>
      <path class="cls-14" d="m63.96,261.23s0,0,0,0c.62,2.09,1.18,4.38,1.66,6.81.08,0,.19.01.28.02-.54-2.25-1.18-4.53-1.94-6.83Z"/>
      <path class="cls-13" d="m56.62,372.69c8.36,5.57,23.26,3.22,27.24,2.35,10.56-2.32,8.44-15.38,7.77-17.31.26.82-.29,11.57-5.65,14.25-16.36,8.17-29.44.35-32.92-6.97-.89-1.87-1.58-4.26-2.76-4.22-.9.03-2.11,1.3-3.04,1.94-5.04,3.52-8.14-7.32-2.87-14.56,7.34-10.07,30.77-40.93,21.53-80.01-.1-.02-.2-.04-.3-.06,1.75,8.99,2.26,20.22-.72,33.04-7.79,33.51-16.47,36.45-22.63,48.5-7.92,15.5,1.7,20.81,14.34,23.04Z"/>
      <path class="cls-14" d="m91.63,357.73c-.04-.13-.07-.2-.07-.2,0,0,.03.07.07.2Z"/>
      <path class="cls-13" d="m148.59,251.98s-14.13-6.52-23.53-11.33c-9.4-4.81-35-10.54-59.63,3.08,0,0,7.02,8.1,12.44,6.23,7.58-2.62,27.82-7.69,42.41-3.95,14.17,3.64,19.61,9.29,28.31,5.97Z"/>
      <path class="cls-14" d="m56.01,243.35s-.04-.29-.25-1.07c-.42-1.97-1.19-6.48-.91-11.95,1.09-21.33,5.97-44.26,10.04-66.16,4.07-21.91,14.86-48.09,14.86-48.09,0,0-16.29,35.65-19.6,55.42-3.32,19.77-6.97,55.22-6.97,55.22,0,0-3.84,1.43-3.76,6.17.07,4.74,6.6,10.47,6.6,10.47Z"/>
      <path class="cls-14" d="m75.24,789.82c.05-.1.09-.21.14-.31-1.06,1.14-2.1,2.3-3.14,3.48,1.19-.88,2.32-1.86,3-3.16Z"/>
      <path class="cls-14" d="m50.45,825.9c.42-.34.74-.82.8-1.35.04-.41-.1-.85-.39-1.13-.58,1.04-1.15,2.08-1.71,3.14.47-.14.92-.34,1.3-.66Z"/>
      <path class="cls-14" d="m59.94,811.18c-.01-.38-.03-.77-.19-1.12-.09-.18-.22-.33-.38-.45-.94,1.38-1.87,2.78-2.77,4.2.19.62.43,1.23.63,1.85.05.15.08.3.12.44.9-1.38,1.77-2.71,2.63-4.01,0-.31-.02-.61-.03-.92Z"/>
      <path class="cls-14" d="m69.9,797.66c-.28-.32-.63-.58-1.01-.73-2.06,2.5-4.08,5.07-6.02,7.72.83-.11,1.65-.27,2.46-.47,1.65-2.4,3.19-4.57,4.58-6.52Z"/>
      <path class="cls-14" d="m44.45,836.06s-.03.02-.05.04c-.7,1.5-1.38,3.02-2.05,4.56,1.07-1.87,2.13-3.7,3.19-5.5-.37.3-.72.61-1.1.9Z"/>
      <path class="cls-14" d="m312.11,1242.26c.14-.1.27-.2.37-.3-.96,15.53-1.94,22.97.5,8.05,1.55-9.47,2.42-20.6,2.77-32.49-.28,1.15-.6,2.28-.97,3.39.85,7.06-.57,14.18-2.67,21.34Z"/>
      <path class="cls-14" d="m42.36,840.65c-.65,1.13-1.29,2.28-1.94,3.43.15.03.3.06.46.1.49-1.19.98-2.37,1.48-3.53Z"/>
      <path class="cls-14" d="m181.14,1187.58c-2.62-1.47-5.25-2.97-7.9-4.52,1.18.81,2.4,1.57,3.64,2.29,1.39.8,2.81,1.53,4.25,2.22Z"/>
      <path class="cls-25" d="m298.36,1157.93c3.22,3.24,5.92,6.31,7.87,9.19,1.99,2.93,3.47,7.14,4.55,12.14,2.17,5.21,3.86,10.61,5.03,16.13-.57-28.07-3.44-57.36-7.18-77.92-6.41-35.24,1.6-81.68,4.3-92.89.18-.76.03-1.98-.4-3.56-2.36-21.52-14.19-134.89-7.1-182.62,7.85-52.85,85.85-110.51,144.3-112.91,58.45-2.4,113.19,61.25,113.19,61.25,0,0-2.14-3.49-6.32-8.97-.3-.05-.63-.12-.98-.22-2.85-.81-3.91-3.46-4.38-6.48-19.03-22.75-60.8-62.19-121.54-61.7-38.67.31-77.22,29.59-107.8,61.5,4.52-.27,9.04-.54,13.56-.81-6.84,3.17-13.81,6.38-20.97,8.77-32.8,36.11-54.76,72.8-54.76,72.8-15.8,47.79,7.25,90.48,12.74,87.81,5.49-2.67-6.56-51.79-4.95-60.86,1.6-9.08,13.24-24.55,11.95,19.9-.88,30.21,14.9,77.63,25.09,104.9-18.92-34.97-65.44-99.94-96.03-109.31-25.26-7.74,80.08,114.52,76.08,123.15-4,8.64-46.45-11.04-60.06-31.06-13.61-20.02,7.21,39.24,32.48,63.27,25.28,24.02,23.57,74.48,5.19,63.27s-45.69-61.66-38.48-32.03c4.19,17.22,26.24,36.07,46.96,53.24,10.74,6.03,20.14,14.32,27.66,24.06Z"/>
      <path class="cls-14" d="m28.15,875.41c1.26-1.54,2.52-3.08,3.79-4.62,2.27-8.46,4.94-16.54,7.99-24.24-.29-.02-.58-.03-.87-.02-5.42,9.8-10.84,20.41-15.84,31.56,1.77.53,3.68-1.15,4.94-2.68Z"/>
      <path class="cls-35" d="m304.91,1236.12c-6.81,5.36-16.19,6.17-27.39-1.75-3.83-2.71-6.71-6.36-9.61-10.04-13.62-4.31-29.06-9.51-44.42-15.87-7.47-1.2-14.86-3.51-22.09-5.81-19.39-6.17-38.77-12.34-58.16-18.51-4.96-1.58-10.16-3.31-13.62-7.2-6.37-7.17-3.65-15.91-1.9-24.14-47.98-36.47-90.93-86.37-100.41-151.04-6.59-44.97-5.56-84.59,1.65-118.59-1.11,1.17-2.31,2.25-3.6,3.22-2.55,1.91-5.54,3.57-8.03,5.57-12.32,30.92-20.42,64.76-16.22,95.78,9.46,69.99,55.64,134.43,77.34,171.31-1.75-5.49-3.54-10.97-5.37-16.43-1.98-5.89-11.9-22.77,0-23.2,6.41-.23,15.11,16.34,18.04,21.07,12.39,19.96,19.76,42.68,22.88,66.01,37.45,22.59,110.32,45.13,167.97,40.57,10.3-.81,17.73-1.65,22.74-2.55.83-2.49,1.69-4.98,2.59-7.45-.73-.31-1.53-.62-2.38-.95Z"/>
      <path class="cls-14" d="m572.65,825.97c-8.26-22.42-55.52-63.65-59.79-66.47-32.82-21.62,17.6,35.24,11.2,34.44-6.41-.8-37.64-24.02-60.06-23.86-22.42.16,44.85,29.47,70.47,41.08,25.63,11.61,44.63,51.65,44.63,51.65,0,0,1.82-14.41-6.44-36.84Z"/>
      <path class="cls-14" d="m574.21,913.56c.46-.41.75.49,1,1.81,1.85-9.62,4.01-21.68,3.88-25.07-.22-5.87-19.54-34.7-19.54-34.7,0,0,7.47,24.02,9.61,34.17,1.09,5.19,1.98,15.14,2.59,23.62.41.75.81,1.51,1.2,2.26.31-.88.71-1.6,1.26-2.09Z"/>
      <path class="cls-14" d="m581.45,871.62c4.68,25.54.27,43.21-3.49,49.02-1.79,2.77-2.18-2.31-2.75-5.27-.24,1.22-.47,2.41-.69,3.53,1.65,3.59,2.92,7.13,3.54,10.38.7-3.16,1.77-6.4,3.38-9.61,9.08-18.15,0-48.05,0-48.05Z"/>
      <path class="cls-14" d="m574.21,913.56c-.55.49-.96,1.21-1.26,2.09.55,1.08,1.08,2.17,1.58,3.25.22-1.12.45-2.31.69-3.53-.25-1.32-.54-2.23-1-1.81Z"/>
      <path class="cls-14" d="m578.8,953.1c.7,2.3,1.16,3.7,1.16,3.7,0,0-.54-1.37-1.16-3.7-1.7-5.58-4.79-16.46-6.01-25.53-.08.4-.13.63-.13.63,0,0-.06-1.2-.17-3.18-.13-1.37-.21-2.68-.22-3.89-.14-2.27-.31-4.93-.51-7.75-6.68-12.29-15.93-23.62-15.93-23.62,8.19,69.94,17.07,75.85,10.28,124.71-6.79,48.85-.31,124.12-20.27,184.27-19.96,60.16-20.09,103.37-20.09,103.37,0,0,27.95-62.12,40.64-111.72,12.69-49.59-7.87-113.51,2.95-153.6,26.64-98.77,9.3-87.88,9.16-103.67-.01-1.22-.17-2.52-.43-3.86-2.19,9.9-.56,18.97.73,23.83Z"/>
      <path class="cls-14" d="m572.95,915.65c-.39-.76-.79-1.51-1.2-2.26.2,2.82.37,5.48.51,7.75-.02-2.18.19-4.06.69-5.48Z"/>
      <path class="cls-14" d="m572.65,928.21s.05-.23.13-.63c-.12-.87-.22-1.72-.3-2.55.11,1.98.17,3.18.17,3.18Z"/>
      <path class="cls-14" d="m572.79,927.58c1.23,9.06,4.31,19.95,6.01,25.53-1.29-4.85-2.91-13.92-.73-23.83-.62-3.24-1.89-6.78-3.54-10.38-.81,4.11-1.47,7.37-1.74,8.68Z"/>
      <path class="cls-14" d="m572.49,925.03c-.06-1.09-.13-2.4-.22-3.89.01,1.21.09,2.53.22,3.89Z"/>
      <path class="cls-14" d="m578.8,953.1c.62,2.34,1.16,3.7,1.16,3.7,0,0-.47-1.41-1.16-3.7Z"/>
      <path class="cls-14" d="m572.26,921.13c.09,1.49.17,2.81.22,3.89.08.83.18,1.68.3,2.55.27-1.3.93-4.56,1.74-8.68-.5-1.08-1.02-2.17-1.58-3.25-.5,1.43-.7,3.3-.69,5.48Z"/>
      <path class="cls-14" d="m491.38,579.79s.73,1.72,2.01,4.65c-.05-.25-.22-1.16-.52-2.47-.96-1.4-1.49-2.18-1.49-2.18Z"/>
      <path class="cls-14" d="m529.7,653.57c16.66,22.54,36.16,97.71,42.95,117.98,6.79,20.26,5.87,57.66,5.87,57.66,0,0,10.66-27.37-1.57-71.25-12.23-43.88-23.75-87.8-36.41-106.32-10.89-15.94-39.45-57.67-47.2-68.98.05.99.06,1.65.06,1.81,5.75,13.15,22.69,50.7,36.3,69.1Z"/>
      <path class="cls-14" d="m491.39,343.77c.06.01.11.03.17.04,1.5-.04,2.98-.09,4.44-.15-1.52-.03-3.06.02-4.61.1Z"/>
      <path class="cls-14" d="m73.64,379.03c3.45-.22,8.95-2.52,8.95-2.52-3.76,1.19-15.49.68-15.49.68,2.6,2.5,1.86,13.85,1.41,18.72.37-.04.76-.05,1.17-.06,4.11-8.03.82-16.63,3.97-16.82Z"/>
      <path class="cls-13" d="m69.67,395.85c-.41,0-.8.02-1.17.06-.13,1.38-.23,2.24-.23,2.24.54-.75,1-1.52,1.4-2.29Z"/>
      <path class="cls-13" d="m96.46,416.25c-2.36-.71-4.8-1.62-6.81-1.76-.4,0-.81,0-1.22.02.38-.05.79-.05,1.22-.02,4.92-.04,9.32.56,13.2,1.08,7.32-1.69,17.79-1.45,25.72-.24-.6-.3-1.24-.6-1.92-.91-5.84-1.34-19.62-3.86-31.53-6.75-12.05-2.92-19.76-7.79-21.79-7.92-2.03-.14,1.39,4.65,2.68,7.1,0,0,.98,3.1,1.95,5.26.75,1.23,1.26,2,1.26,2,1.27.14,2.47.23,3.65.3,3.58-.41,8.94,1.4,13.6,1.84Z"/>
      <path class="cls-14" d="m97.12,416.45c-3.12-.18-6.53-.41-10.29-.64,3.3.41,7.06.65,10.44.68-.05-.01-.1-.03-.15-.04Z"/>
      <path class="cls-14" d="m102.84,415.57c.85.11,1.67.22,2.47.32.13-.03.26-.07.38-.11,4.66-1.48,24.24.21,23.8-.52-.1-.17-1.14-.46-2.85-.85.67.31,1.32.61,1.92.91-7.93-1.21-18.39-1.45-25.72.24Z"/>
      <path class="cls-14" d="m79.21,414.11s-.51-.78-1.26-2c.46,1.02.92,1.83,1.26,2Z"/>
      <path class="cls-14" d="m96.46,416.25c-4.66-.44-10.02-2.24-13.6-1.84-1.17-.07-2.38-.16-3.65-.3,1.46.71,4.3,1.29,7.62,1.7,3.76.23,7.17.45,10.29.64-.22-.06-.44-.13-.66-.19Z"/>
      <path class="cls-14" d="m88.42,414.51c.41-.01.82-.01,1.22-.02-.43-.03-.84-.03-1.22.02Z"/>
      <path class="cls-14" d="m101.25,415.98c-1.41.41-3.05.43-4.79.27.22.07.44.13.66.19.25.01.51.03.75.04,3.12,0,5.83-.18,7.44-.6-.8-.1-1.62-.21-2.47-.32-.55.13-1.09.26-1.6.41Z"/>
      <path class="cls-14" d="m97.12,416.45s.1.03.15.04c.2,0,.4,0,.6,0-.25-.01-.5-.03-.75-.04Z"/>
      <path class="cls-14" d="m101.25,415.98c.51-.15,1.05-.28,1.6-.41-3.88-.52-8.28-1.12-13.2-1.08,2.01.14,4.46,1.05,6.81,1.76,1.74.16,3.38.14,4.79-.27Z"/>
      <path class="cls-13" d="m118.67,422.54c1.17-.75,3.22-1.64,5.32-2.46,2.03-1.07,3.54-1.78,4.02-1.91-1.26.18-8.99.99-12.17,1.68-3.6.79-17.48,2.26-22.94,2.91s-16.87-3.84-13.04,1.86c0,0,1.09,1.88,2.44,3.9,2.25,2.26,4.59,3.7,4.59,3.7,15.77-3.36,22.18-3.5,31.78-9.67Z"/>
      <path class="cls-14" d="m128.15,418.12s-.09.02-.14.04c.16-.02.22-.04.14-.04Z"/>
      <path class="cls-14" d="m111.36,427.82c-4.92,2.13-9.96,3.47-16.77,4.98,5.79-.8,13.18-2.38,16.77-4.98Z"/>
      <path class="cls-14" d="m123.99,420.07c-2.1.82-4.15,1.71-5.32,2.46-9.59,6.16-16,6.3-31.78,9.67,0,0-2.35-1.43-4.59-3.7,1.55,2.32,3.44,4.84,4.41,4.94.74.08,3.93-.11,7.88-.66,6.81-1.51,11.84-2.85,16.77-4.98.03-.02.07-.05.1-.07,3.66-2.74,8.9-5.76,12.53-7.67Z"/>
      <path class="cls-14" d="m141.31,277.8c.39.12.62.18.62.18-.21-.06-.41-.12-.62-.18Z"/>
      <path class="cls-14" d="m138.07,276.69c.82.33,1.67.62,2.54.89-.64-.21-1.48-.5-2.54-.89Z"/>
      <path class="cls-14" d="m140.61,277.58c.27.09.51.16.7.22-.24-.07-.46-.15-.7-.22Z"/>
      <path class="cls-14" d="m64.88,267.97c.25.06.5.1.75.15,0-.03-.01-.05-.02-.08-.47-.03-.73-.07-.73-.07Z"/>
      <path class="cls-14" d="m63.67,260.4c-1.41-.85-2.85-1.85-4.29-3.06,0,0,1.77,1.83,4.57,3.88-.02-.05-.03-.11-.05-.16-.07-.22-.15-.44-.23-.67Z"/>
      <path class="cls-13" d="m63.96,261.23c3.59,2.63,8.85,5.63,14.22,5.59.49,0,.96-.02,1.44-.04-5.91,1.57-11.5,1.42-13.72,1.28,0,.04.02.08.03.12,9.66,1.85,16.81-.46,20.29-2.07.2-.03.38-.07.57-.11-.19-2.27,7.69-2.39,7.69-2.39l-.81,7.2s-1.16-.44-2.52-1.11c-.01.82-.03,1.65-.02,2.47-.09,1.25-.12,2.53-.09,3.85.04,1.37.15,2.7.31,3.98.42,8.1,1.27,14.35,1.27,14.35,2.09.53,4.11.72,6.07.69.05.03.09.07.14.1-1.48.03-2.94-.08-4.33-.4,0,0,1.82.49,4.68.61,2.49.1,4.36-.12,6.36-.44,1.35-.24,2.77-.59,4.23-1.1,8.22-2.85,9.68-4.4,9.57-3.41-.11.98-10.09,6.2-15.06,6.71-4.97.51-19.54-.58-12.8-3.76,0,0-3.27.39-4.17,1.62-.9,1.23,9.7,6.59,21.37,2.4,11.67-4.2,19.14-11.52,27.7-9.99l-3.41-1.77c.11-.06.21-.12.31-.19,5.34,2.97,10.48,5.34,14.55,6.18,0,0-11.32-5.68-21.25-12.35-9.93-6.67-18.38-15.16-27.2-16.43-5.97-.86-8.07-.18-8.81.35-1-.13-2.18-.21-3.47-.2h0c-3.32-2.24,1.95-5.48,8.42-4.75,6.47.73,14.08,3.1,25.99,10.3,7.1,4.29,12.97,6.82,16.58,8.18-5.13-2.07-9.62-5.33-17.83-10.96-10.18-6.98-24.8-9.52-31.14-8.81-6.34.71-4.41,6.49-4.41,6.49-2.94.93-11.4,2.74-20.98-3,.07.22.14.43.2.65.02.06.03.11.05.17Zm45.36,14.29c3.18.86,6.61,2.37,10.78,4.48,7.43,3.75,9.27,3.85,9.27,3.85,0,0-13.44,5.61-16.46,7.12-1.39.7-4.74,1.53-8.37,1.97,3.02-3.14,5-9.77,4.78-17.42Zm-15.9,16.54s-.24-1.7-.5-4.27c-.05-.46-.09-.95-.14-1.46.99,2.91,2.33,5.24,3.89,6.74-1.31-.18-2.45-.49-3.26-1Z"/>
      <path class="cls-14" d="m63.7,260.41s-.02-.01-.03-.02c.08.22.16.44.23.67-.07-.22-.13-.43-.2-.65Z"/>
      <path class="cls-14" d="m63.9,261.06c.02.05.03.11.05.16,0,0,0,0,0,0-.02-.06-.03-.11-.05-.17Z"/>
      <path class="cls-14" d="m65.89,268.05c-.1,0-.2-.01-.28-.02,0,.03.01.05.02.08.1.02.2.04.3.06,0-.04-.02-.08-.03-.12Z"/>
      <path class="cls-14" d="m86.78,266s0,.01,0,.02c.14,1.34,2.46,2.74,4.36,3.68.02-1.59.06-3.18.15-4.76-1.19.34-2.72.72-4.51,1.05Z"/>
      <path class="cls-13" d="m94.47,263.61s-7.88.12-7.69,2.39c1.8-.33,3.32-.71,4.51-1.05-.09,1.57-.13,3.16-.15,4.76,1.36.67,2.52,1.11,2.52,1.11l.81-7.2Z"/>
      <path class="cls-14" d="m93.03,256.22c9.95.42,17.08,3.61,17.08,3.61.38-5.62-10.24-14.17-14.07-13.65-15.98,2.14-17.45,5.28-21.33,4.59-3.89-.69-8.6-5.18-8.6-5.18,4.99,16.66,18.13,17.75,18.13,17.75-.91-2.5-1.17-7.55,8.79-7.12Z"/>
      <path class="cls-14" d="m89.57,278.16l.86-7.7c-2.59-1.04-4.42-3.77-4.42-3.77-2.04,1.34-5.18,1.87-5.18,1.87,1.71,3.78,8.74,9.6,8.74,9.6Z"/>
      <path class="cls-14" d="m169.97,286.92c.83-2.93,3.6-9.66-4.36-3.76-7.96,5.9-19.61,4.34-19.61,4.34,12.53,7.19,23.13,2.34,23.96-.58Z"/>
      <path class="cls-14" d="m97.47,300.18c-3.39-.07-7.19-2.1-7.19-2.1.17.18,3.22,4.42,3.03,6.09-.19,1.68,8.12-.66,14.37-3.67,6.25-3.01-6.83-.26-10.21-.33Z"/>
      <path class="cls-14" d="m124.6,114.88c-13.03-.1-29.81-.6-43.05-.82-1.51,3.21-8.26,20.98-8.26,20.98-1.69,6.07,8.73-7.57,10.72-10.37s14.28-5.45,33.84-6.35c19.56-.9,33.93-.98,33.45-2.71-.48-1.73-4.58-.57-26.69-.73Z"/>
      <path class="cls-14" d="m40.44,874.14c-.05,1.22-.1,2.45.12,3.66.56,3.07,2.8,5.53,5.09,7.65,2.67,2.49,5.54,4.76,8.58,6.79,3.5-1.52,6.5-4.16,8.45-7.43,2.55-4.29,3.23-9.66,1.79-14.43-1.28,2.84-2.55,5.69-3.83,8.53-.93,2.07-2.42,4.5-4.68,4.32-1.67-.13-2.84-1.69-3.57-3.19s-1.31-3.2-2.66-4.19c-1.79-1.31-4.56-1.1-5.88-2.88-1.53-2.06.08-4.87.91-7.3.65-1.92-.23-13.16-3.43-10.54-.97.8-.38,7.79-.44,9.18-.14,3.28-.28,6.56-.42,9.84Z"/>
      <path class="cls-14" d="m88.78,809.72c-.28.02-.56.05-.83.1,3.92,4.96,7.83,9.91,11.75,14.87,1.73,2.19,3.5,4.45,4.37,7.11.87,2.66.68,5.84-1.2,7.91-.89.98-2.08,1.63-3.24,2.27-1.37.75-2.73,1.49-4.1,2.24-2.37,1.29-4.79,2.6-7.44,3.07-5.7,1.01-11.16-1.87-16.84-1.59-4.03.2-3.86,1.51-.64,3.42.53.32,1.08.6,1.63.87.66-2.39,1.78-4.18,3.63-1.73.44.58.49,1.79.36,3.2.91.24,1.84.42,2.78.54,3.4.41,6.88-.01,10.15-1.04,2.79-.87,5.42-2.17,8.03-3.46,5.39-2.66,10.78-5.33,16.16-7.99-3.34-1.05-5.23-4.49-6.79-7.63-1.93-3.9-3.86-7.8-5.78-11.7-1.32-2.67-2.67-5.39-4.78-7.48-.5-.49-1.04-.94-1.63-1.34-1.11-.02-2.12-.09-3-.23-2.75-.91-3.31-1.04-2.6-1.42Z"/>
      <path class="cls-14" d="m37.03,864.58c-1.7,2.07-3.39,4.14-5.09,6.21-1.08,4.04-2.07,8.16-2.97,12.38,4.74-5.01,7.69-11.7,8.06-18.59Z"/>
      <path class="cls-14" d="m22.74,877.9c-1.76-.96-1.59-3.51-1.17-5.47.51-2.39,2.21-6.38,1.89-8.8-.33-2.54-1.27-2.47-2.39-.22-2.49,5-3.62,11.14-5.44,16.44-1.99,6.02-4.01,12.32-3.01,18.57.75-2.69,2.54-4.71,4.72-6.46,1.87-4.7,3.84-9.32,5.88-13.87-.16-.05-.32-.11-.47-.19Z"/>
      <path class="cls-14" d="m28.97,883.17c.89-4.21,1.89-8.34,2.97-12.38-1.26,1.54-2.52,3.08-3.79,4.62-1.26,1.54-3.16,3.21-4.94,2.68-2.04,4.54-4.01,9.17-5.88,13.87,2.48-2,5.48-3.67,8.03-5.57,1.29-.97,2.5-2.05,3.6-3.22Z"/>
      <path class="cls-14" d="m71.4,855.24c-.19,2.84-.37,5.69-.56,8.53-.1,1.57.4,7.41-.56,8.53,3.3-3.83,4.77-8.63,4.89-13.61.03-1.35.84-4.63,1.06-7.22-1.38-.36-2.72-.85-4-1.48-.58,2.11-.8,4.69-.84,5.25Z"/>
      <path class="cls-14" d="m75.87,848.27c-1.85-2.46-2.97-.67-3.63,1.73,1.28.62,2.62,1.12,4,1.48.12-1.41.08-2.62-.36-3.2Z"/>
      <path class="cls-14" d="m281.21,444.32s.05-.06.08-.09c-.28.29-.56.56-.84.85-.56.57-1.12,1.15-1.69,1.71-1.56,1.52-3.28,3.2-5.15,5.01-1.88,1.82-3.91,3.78-6.07,5.84,7.43-6.31,12.37-11.24,13.68-13.32Z"/>
      <path class="cls-14" d="m98.64,806.8c5.05-.98,9.99-2.52,14.69-4.6,5.79-2.56,11.23-5.92,16.08-9.98-.2-.09-.41-.18-.61-.27-3.49-1.61-7.05-3.07-10.66-4.41-2.83,0-5.66-.02-8.49-.03-1.07,0-2.19-.03-3.28-.17,2.75,1.44,5.5,2.88,8.25,4.32.1,1.21-.42,2.24-1.23,3.13-.94,1.02-2.26,1.85-3.49,2.5-1.31.7-2.61,1.39-3.92,2.09-5.34,2.84-10.67,5.69-16.01,8.53.9-.05,1.79-.13,2.68-.22.46-.31.94-.66,1.44-1.08-.09-.04,1.89.11,4.55.2Z"/>
      <path class="cls-14" d="m75.47,771.97c-.09.46-.17.92-.22,1.4.54-.48,1.05-.98,1.57-1.48-.11-.05-.21-.09-.31-.1-.36-.02-.71.06-1.04.18Z"/>
      <path class="cls-14" d="m101.77,782.44c-.16-.04-.33-.09-.49-.13-1.32.35-4.2.35-4.43-1.03-.04,0-.09-.02-.13-.03,0-.02.02-.04.03-.05.03,0,.07,0,.1,0,0-.07-.01-.13,0-.2h0c.57-6.77,1.39-12.92,1.96-19.69.4-.57.82-1.14,1.23-1.72.28-3.32.56-6.64.84-9.96.13-1.58.27-3.16.4-4.74-5.98,3.57-11.48,7.93-16.33,12.92-3.79,3.9-7.79,7.94-9.23,13.14.62-.05,1.18.03,1.71.35,4.43-4.39,8.35-9.34,12.93-13.57,1.94-2.02,3.96-4.09,6.55-5.18.03.85.04,1.71.05,2.56.1,6.78-.26,13.57-1.1,20.3-.13,1.03-.27,2.06-.42,3.08-.05.32-.09.64-.14.96-.07.44-.13.89-.2,1.33l-1.19-.14c.39.08.78.17,1.17.25-.01.07-.03.15-.04.22-.19,0-.38-.02-.57-.03.18.09.35.18.53.28-.17,1.05-.35,2.1-.55,3.15.57-.58,1.05-1.21,1.49-1.87.13-.2.25-.39.37-.59.08.04.15.08.23.12,1.49.78,2.98,1.56,4.47,2.34-.23-.69.1-1.42.78-2.07Z"/>
      <path class="cls-14" d="m17.77,865.59c-.05-1.72-.91-3.3-1.42-4.95-1.73-5.64.8-11.61,3.27-16.96,1.17-2.53,2.38-5.19,4.32-7.24,1.22-1.29,3.63-2.2,4.32-3.73-6.45-2.1-10.81,9.5-12.99,13.39-1.52,2.71-3.06,5.46-3.78,8.48-1.2,5.03.09,10.6,3.39,14.58,1.72.1,2.94-1.85,2.89-3.57Z"/>
      <path class="cls-14" d="m50.61,789.69c2.28-5.5,5.94-10.29,9.57-15.01-5.2,3.02-9.41,7.74-11.82,13.25-1.83,4.18-2.62,8.73-3.39,13.22,1.11-1.61,2.28-3.18,3.49-4.71.58-2.3,1.25-4.57,2.15-6.76Z"/>
      <path class="cls-14" d="m45.09,807.89c-.68-.69-1.21.65-1.34,1.05-.03.1-.07.2-.11.3-.2.85-.33,1.65-.32,2.35.34,0,.64-.11.92-.3,0-.01.01-.02.02-.03.26-.5,1.3-2.91.84-3.38Z"/>
      <path class="cls-14" d="m29.06,823.28c1.7-1.69,8.84-6.73,7.17-9.32-2.51,1.51-5.1,5.99-7.87,6.79-3.46,3.06-6.96,6.17-9.59,9.97-3.42,4.96-5.21,11.01-5.03,17.03,2.1-5.57,4.24-11.21,7.71-16.04,2.21-3.08,4.91-5.76,7.6-8.43Z"/>
      <path class="cls-14" d="m83.57,843.56c-1.03-.09-2-.48-2.96-.86-1.12-.45-2.24-.9-3.36-1.35-1.2-.48-2.47-1.02-3.22-2.07-.98-1.37-.83-3.2-1.05-4.87-.22-1.67-1.24-3.57-2.92-3.55-1.14.02-2.09,1-2.42,2.09-.33,1.09-.16,2.27.07,3.39.46,2.24.91,5.53,3.15,6.69,2.61,1.35,6.22,1.92,9.1,2.3,3.23.43,6.59.29,9.62-.9,1.13-.45,2.2-1.04,3.27-1.62,1.32-.73,2.65-1.46,3.97-2.19.84-.46,1.72-.95,2.26-1.75.55-.79.65-1.98-.04-2.66-.56-.56-1.48-.6-2.22-.31-.74.28-1.34.84-1.91,1.38-1.18,1.1-2.36,2.2-3.54,3.3.51-1.36,1.03-2.74,1.12-4.18.1-1.45-.28-2.99-1.33-3.99-1.05-1-2.85-1.25-3.95-.31-1.42,1.2-1.07,3.45-.54,5.24.53,1.79,1.02,3.96-.27,5.31-.71.75-1.82,1-2.85.92Z"/>
      <path class="cls-14" d="m101.57,833.04c.67-.64.89-1.66.7-2.57-.31-1.52-1.57-2.66-2.87-3.5-1.3-.85-2.74-1.54-3.78-2.68-1.13-1.24-1.68-2.88-2.41-4.39-1.51-3.12-4.28-6.55-7.52-8-1.87-.84-2.81.33-4.24,1.46-.7.55-5.14,3.23-5.14,3.97-1.09.84-2.22,1.74-2.79,2.99-.57,1.26-.35,2.98.85,3.67,1.06.61,2.45.19,3.41-.56.97-.75,1.68-1.78,2.59-2.6,2.18-1.94,5.53-2.43,8.17-1.2,2.64,1.23,4.42,4.12,4.33,7.03-.04,1.24-.38,2.49-.1,3.7s1.56,2.32,2.69,1.82c.53-.24.87-.75,1.2-1.22.34-.47.75-.95,1.32-1.06.57-.11,1.25.4,1.08.96-.78.5-.76,1.8-.04,2.39.72.59,1.87.44,2.54-.2Z"/>
      <path class="cls-14" d="m52.46,853.94c1.86-3.05-.69-2.93-2.57-1.34-1.64,1.39-2.81,3.36-3.17,5.49-.39,2.35.14,4.74.67,7.06,1.01,4.41,2.17,9.1,5.45,12.21.72.68,1.63,1.3,2.62,1.2.99-.1,1.83-1.31,1.26-2.12-1.47,0-3.04-.02-4.23-.88-1.19-.86-1.61-2.88-.43-3.75.95-.69,2.62-.51,2.98-1.63.24-.77-.47-1.56-1.25-1.78-.78-.22-1.6-.06-2.41-.06-.81,0-1.71-.22-2.12-.92-.41-3.72-.74-7.77,1.3-10.9.59-.9,1.35-1.68,1.91-2.59Z"/>
      <path class="cls-14" d="m58.36,876.5c.63.83,1.37.44,1.86-.25,1.08-1.57,1.14-4.87,1.32-6.73.46-4.64.08-9.37-1.13-13.88-.3-1.1-.66-2.22-1.42-3.07-.76-.85-2.01-1.35-3.07-.93-1.08.43-1.62,1.7-1.58,2.86.04,1.16.56,2.24,1.06,3.29,1.05,2.18,2.09,4.37,3.14,6.55.34.71.69,1.45.69,2.24,0,.79-.44,1.64-1.2,1.84-.46.12-.97,0-1.4.18-.93.39-.77,1.91.06,2.49.83.58,1.94.49,2.94.38.49.65.12,1.59-.36,2.24-.54.73-1.63,1.84-.9,2.79Z"/>
      <path class="cls-14" d="m85.2,798.24c-.76.55-.22,1.84.12,2.47,1.88,3.52,5.49,1.56,7.79-.37,1.23-1.03,2.55-2.08,4.14-2.29.56-.07,1.16-.04,1.68-.28.52-.24.91-.89.63-1.38-.23-.38-.73-.47-1.18-.49-2.15-.08-4.33.69-5.96,2.1-.86.75-1.71,1.72-2.85,1.73-1.25,0-3.21-2.32-4.37-1.49Z"/>
      <path class="cls-14" d="m89.87,788.64c.51-.27,1.14-.45,1.67-.21.89.4.96,1.6,1.18,2.55.39,1.73,1.75,3.2,3.44,3.73.32.1.71.16.97-.05.33-.27.24-.83-.06-1.15-.29-.31-.72-.46-1.1-.66-1.1-.57-1.93-1.65-2.18-2.87-.25-1.18-.07-2.64-1.03-3.37-.92-.7-2.28-.2-3.19.52-.87.69-1.88,1.38-2.69,2.04.38.38.93.43,1.45.27.55-.17,1.03-.54,1.54-.81Z"/>
      <path class="cls-14" d="m36.36,844.23c-2.01.81-3.69,3.07-5.79,2.52-1.8-.48-2.39-2.71-2.55-4.56-.16-1.86-.4-4.05-2.03-4.95-1.28,4.47-1.17,9.32.3,13.74-.45-1.34,10.38-4.16,11.51-4.34.42-.07.84-.1,1.26-.1.45-.82.9-1.64,1.36-2.44-1.38-.28-2.77-.38-4.05.14Z"/>
      <path class="cls-14" d="m49.16,848.77c1.93.29,3.98.41,5.79-.33,2.38-.98,3.93-3.24,5.35-5.4,2.87-4.38,5.88-9.39,4.78-14.51-2.8,4-5.6,8-8.4,12-1.05,1.5-2.15,3.05-3.72,4.01-3.18,1.94-7.26.94-10.86-.04-.4-.11-.81-.22-1.22-.31-.32.78-.63,1.58-.95,2.37,3.09.23,6.19,1.77,9.23,2.22Z"/>
      <path class="cls-14" d="m40.87,844.19c-.15-.04-.3-.07-.46-.1-.45.81-.9,1.62-1.36,2.44.29,0,.58,0,.87.02.31-.79.63-1.58.95-2.37Z"/>
      <path class="cls-14" d="m78.89,796.35c-1.17,2.61-1.8,5.7-.57,8.28.49,1.02,1.26,1.95,1.34,3.08.15,2.07-2.01,3.47-3.9,4.31-.84.37-5.88,3.52-2.56,3.65.95.04,3.1-1.8,3.95-2.3,1.28-.75,2.57-1.51,3.85-2.26,1.34-.79,2.82-1.78,3.02-3.32.25-1.98-1.73-3.45-2.54-5.27-.91-2.03-.3-4.43.74-6.39,1.04-1.96,2.48-3.7,3.39-5.73,2.28-5.13.34-11.77-4.35-14.87,2.41,3.87,2.96,8.85,1.44,13.15-.95,2.69-2.63,5.07-3.81,7.67Z"/>
      <path class="cls-14" d="m79.18,776.77c.47-1.43.13-3.46-.79-4.59-.33-.4-.65-.68-.97-.87-.2.2-.4.39-.6.58,1.11.57,2.58,3.64,2.36,4.89Z"/>
      <path class="cls-14" d="m73.59,771.34c-1.3.27-2.25,4.37-3.55,4.64-.62.13-4.94-4.16-5.56-4.03-1.21.25-.74.07-1.83.66-1.18.64-.81,1.34-1.73,2.31-1.21,1.28-5.86,6.36-4.22,8.6.92-.76,1.55-2.35,2.18-3.38.55-.91,2.92-2.89,2.92-3.91.46-.77.54-1.78,1.26-2.31.72-.53,1.74-.76,2.52-.31,1.18.68,1.24,2.47,2.34,3.27.98.71,2.42.32,3.34-.47.92-.79,1.5-1.9,2.25-2.85.53-.67,1.21-1.29,1.99-1.58.07-.34.15-.68.24-1.01-.62.05-1.3.21-2.12.38Z"/>
      <path class="cls-14" d="m75.71,770.96c-.09.33-.17.67-.24,1.01.33-.13.68-.2,1.04-.18.1,0,.2.04.31.1.2-.19.4-.38.6-.58-.53-.31-1.08-.4-1.71-.35Z"/>
      <path class="cls-14" d="m43.41,827.87c-.93.79-1.26,2.06-1.85,3.13-.59,1.07-1.79,2.06-2.93,1.63-2.31-.87-1.17-5.01-1.22-6.91-.05-2.3.74-6.93,3.92-3.94.68.64,1.19,1.45,1.92,2.03,1.3,1.04,3.26,1.16,4.69.31.83-.5,1.74-1.33,2.62-.92.11.05.21.13.3.21,1.83-3.29,3.74-6.49,5.73-9.6-.17-.55-.31-1.11-.34-1.69-.04-.94.27-1.96,1.04-2.51.6-.43,1.51-.42,2.07,0,1.15-1.68,2.31-3.35,3.5-4.97-.8.11-1.6.18-2.4.22-.15.11-.32.17-.51.19-.3.02-.6-.06-.89-.14-.03,0-.06-.02-.08-.02-.42,0-.84,0-1.25-.03-.04-.13-.4-.31-.44-.44.57.16,1.13.32,1.7.47.49,0,.98,0,1.48-.02.1-.07.18-.15.23-.26.13-.27.15-.66-.14-.74-.47.69-1.7-.06-1.58-.88.12-.82.98-1.33,1.79-1.52,1.73-.41,3.93-.11,4.93-1.58.87-1.28.18-2.97-.11-4.49-.35-1.82,0-3.88,1.35-5.16,1.18-1.12,2.88-1.45,4.42-2,1.54-.54,3.15-1.57,3.4-3.18,1.17,1.09,1.26,2.96.62,4.44.87-.94,1.75-1.86,2.64-2.78,0,0-3.13,3.95-8.12,10.93.34.4.59.89.66,1.4.18,1.31-.53,2.63-1.54,3.47-1.02.85-2.31,1.29-3.59,1.62-.03,0-.07.01-.1.02-1.68,2.43-3.47,5.08-5.36,7.93.02.58.04,1.17.05,1.75,0,.31.02.62.01.94-.06,2.29-3.36,9.58-6.66,7.6.47-1.14,1.9-1.44,2.8-2.19,1.34-1.12,1.56-2.49,1.16-4.09-3.71,5.71-7.7,12.1-11.78,19.05,4.09-3.31,7.87-6.98,11.27-11,2.8-3.31,9.21-10.47,10.95-16.64.68-.74,1.35-1.48,2.01-2.23,4.04-4.61,7.82-9.69,9.34-15.62,1.08-4.25.45-9.64-3.42-11.71-2.22-1.19-4.98-.93-7.29.07-7.4,3.2-14.32,11.43-19.27,17.55-.23.29-.45.59-.68.88-.35,1.38-.68,2.76-1,4.14-.48,2.08-.95,9.21-3.22,10.71-.49.95-1.21,1.8-2.17,2.28-.99.49-2.34.73-2.67,1.78-.18.56.02,1.18.38,1.64.35.46.84.8,1.32,1.13-.98.43-2.22.15-2.91-.66-.7-.81-.79-2.08-.23-2.98.85-1.35,2.71-1.59,3.98-2.56.92-.7,1.35-1.66,1.71-2.7.62-2.67,1.89-5.81,1.3-7.91.01-.06.02-.12.03-.18-3.97,5.77-7.25,12.01-9.77,18.55-.35.92-.67,1.85-1,2.78-1.19,1.65-2.25,3.37-3.13,5.21-1.59,3.32-2.45,7.71.09,10.38,1.7,1.79,4.49,2.19,6.88,1.58,2.37-.61,4.43-2.05,6.36-3.56,1.51-3.26,3.09-6.44,4.74-9.54-1.87.54-4.23.03-5.74,1.32Zm18.89-42.33c.76.19,1.54.62,2.29.38.8-.26,1.18-1.14,1.6-1.87.8-1.39,2.09-2.5,3.58-3.08.57-.22,1.19-.37,1.8-.28.61.09,1.2.45,1.44,1.01.31.71,0,1.56-.56,2.1-.55.54-1.28.84-2,1.13.08-.54-.17-1.12-.62-1.44-.45-.32-1.08-.36-1.57-.1-.82.43-1.06,1.46-1.51,2.27-.77,1.35-2.38,2.16-3.92,1.98-1.02-.12-2.09-.63-3.01-.18-1.05.51-1.17,1.79-1.58,2.75-.51,1.19-.74.57-.8-.41-.16-2.65,2.14-4.94,4.85-4.26Z"/>
      <path class="cls-14" d="m71.64,793.41c-1.4.99-2.86,1.97-3.83,3.37.37-.06.74,0,1.08.14,1.1-1.34,2.22-2.65,3.35-3.95-.2.15-.4.29-.6.43Z"/>
      <path class="cls-14" d="m72.24,792.98c-1.14,1.29-2.25,2.61-3.35,3.95.39.15.73.41,1.01.73,4.99-6.98,8.12-10.93,8.12-10.93-.89.91-1.77,1.84-2.64,2.78-.04.11-.08.21-.14.31-.68,1.3-1.81,2.29-3,3.16Z"/>
      <path class="cls-14" d="m45.55,835.16c4.09-6.94,8.08-13.34,11.78-19.05-.04-.15-.07-.29-.12-.44-.19-.62-.43-1.23-.63-1.85-1.99,3.11-3.9,6.31-5.73,9.6.29.28.44.72.39,1.13-.06.53-.38,1.01-.8,1.35-.39.32-.83.52-1.3.66-1.65,3.11-3.23,6.28-4.74,9.54.02-.01.03-.02.05-.04.37-.29.73-.6,1.1-.9Z"/>
      <path class="cls-14" d="m59.74,810.07c.17.34.18.74.19,1.12,0,.31.02.61.03.92,1.89-2.85,3.68-5.5,5.36-7.93-.81.2-1.63.36-2.46.47-1.19,1.63-2.36,3.29-3.5,4.97.16.12.29.26.38.45Z"/>
      <path class="cls-14" d="m43.64,809.25c.04-.1.07-.2.11-.3.13-.4.66-1.74,1.34-1.05.46.47-.58,2.88-.84,3.38,0,.01-.01.02-.02.03,2.28-1.5,2.74-8.64,3.22-10.71.32-1.38.65-2.77,1-4.14-1.21,1.53-2.38,3.1-3.49,4.71-.01.06-.02.12-.03.18.59,2.1-.67,5.24-1.3,7.91Z"/>
      <path class="cls-14" d="m214.06,659.4c-1.24,3.13-3.46,5.77-4.98,8.78-1.52,3.01-3.22,11.57-.45,9.64,7.66-5.35,11.9-10.78,16.35-17.42,4.45-6.63,12.62-18.39,3.32-28.15-10.01-10.52-11.21,19.48-14.25,27.16Z"/>
      <path class="cls-14" d="m207.32,635.19c-6.52,9.83-13.04,19.65-19.56,29.48-12.92,19.48-25.85,38.96-38.77,58.45-3.56,5.36-7.11,10.72-10.67,16.08,8.88-8.53,20.23-15.65,26.69-26.16,4.36-7.08,6.27-15.37,9.84-22.89,6.5-13.71,18.1-24.15,28.27-35.41,7.93-8.78,23.4-27.15,19.19-40.19-6.27,3.08-11.25,14.99-15,20.64Z"/>
      <path class="cls-14" d="m126.69,756.74c3.88-5.85,7.76-11.69,11.63-17.54-5.24,5.03-9.62,10.55-11.63,17.54Z"/>
      <path class="cls-14" d="m315.82,1195.39c.15,7.53.14,14.97-.07,22.13,1.47-6.03,1.78-12.55.75-18.62-.2-1.18-.43-2.34-.68-3.51Z"/>
      <path class="cls-14" d="m309.54,1231.29c1.18-2.85,2.43-5.61,3.8-8.2.4-14.98.07-31.75-2.56-43.83-3.18-7.61-7.38-14.8-12.42-21.33-7.29-7.33-17.31-15.48-27.66-24.06-.06-.03-.12-.07-.18-.1-21.76-12.15-47.49-15.04-70.3-25.07-25.38-11.17-46.67-31.39-59.12-56.17-5.6-11.14-13.41-25.49-25.67-23.23-7.2,1.33-12.05,8.71-12.76,15.99-.71,7.29,1.83,14.47,4.61,21.24,21.74,52.97,61.53,98.04,110.64,127.29,12.44,7.41,27.21,11.76,39.19,19.58,4.47,2.92,7.65,6.94,10.8,10.93,15.72,4.98,29.02,8.77,37,11.79,1.71-1.34,3.26-2.98,4.63-4.83Z"/>
      <path class="cls-14" d="m270.7,1133.87c10.35,8.58,20.37,16.73,27.66,24.06-7.52-9.74-16.92-18.03-27.66-24.06Z"/>
      <path class="cls-14" d="m277.53,1234.37c11.2,7.92,20.58,7.11,27.39,1.75-7.98-3.02-21.28-6.81-37-11.79,2.91,3.68,5.79,7.33,9.61,10.04Z"/>
      <path class="cls-14" d="m315.82,1195.39c-1.17-5.52-2.86-10.92-5.03-16.13,2.62,12.08,2.96,28.85,2.56,43.83.45-.86.92-1.71,1.4-2.53.02.12.02.24.04.36.36-1.11.69-2.24.97-3.39.21-7.16.22-14.6.07-22.13Z"/>
      <path class="cls-14" d="m520.39,1075.6c-3.16,8.46-6.02,17.03-8.58,25.69-2.02,6.85-3.85,13.77-5.49,20.72,4.85-3.39,10.03-6.09,15.89-7.34-6.84,3.79-12.83,9.03-17.65,15.19-1.8,8.42-3.34,16.89-4.58,25.41-2.61,17.87-3.97,35.92-4.08,53.98-.09,15.28-2.19,38.3,4.08,52.08,9.3-3.93,10.5-28.37,12.48-37.34,3.38-15.31,6.43-30.7,8.76-46.21,6.24-41.37,7.43-83.32,8.61-125.14-.18,6.52-7.1,16.68-9.45,22.96Z"/>
      <path class="cls-14" d="m394.1,1006.47c18.07,10.76,27.62,8.11,48.56,10.04,13.46,1.24,30.66,2.63,43.6-2.22,20.7-7.76-8.1-9.28-16.01-10.19-29.14-3.38-57.51-13.51-82.07-29.58-33.16-21.7-59.19-54.12-73.22-91.18-6.04,53.15,3.81,123.19,12.67,160.16-2.69-14.46,3.47-57.68,13.98-63.52,11.03-6.13,24.98,10.12,52.5,26.5Z"/>
      <path class="cls-14" d="m327.62,1043.49c.13.71.28,1.35.46,1.91-.15-.62-.31-1.27-.46-1.91Z"/>
      <path class="cls-14" d="m469.9,1149.13c-10.39,4.15-21.94,3.87-33.12,3.52.63,12.18,29.87,17.68,23.44,25.34-8.95,10.65-37.63-17.22-44.95-22.36-8.56-6.01-17.18-12.08-24.4-19.65-8.77-9.2-15.21-20.33-21.56-31.34-11.01-19.1-22.02-38.21-33.04-57.31,1.54,37.87,1.42,75.8-.36,113.65-.83,17.54-1.99,35.31,1.49,52.52,2.17,10.74,6.12,21.03,10.04,31.27-1.15-24.18-1.73-48.39-1.74-72.6,0-4.23.07-8.69,2.19-12.36,3.21-5.56,10.42-7.75,16.78-6.89s12.09,4.15,17.63,7.37c17.84,10.38,35.68,20.76,53.52,31.14,7.54,4.39,15.91,8.94,24.51,7.45,4.55-.79,8.63-3.21,12.59-5.59,7.14-4.29,14.81-9.21,17.46-17.11,1.42-4.23,1.19-8.8,1.45-13.25.7-11.99,5.34-23.62,12.73-33.08.56-2.62,1.14-5.24,1.76-7.85-12.22,8.54-22.41,21.52-36.42,27.12Z"/>
      <path class="cls-14" d="m522.21,1114.67c-5.86,1.25-11.03,3.94-15.89,7.34-.62,2.61-1.2,5.23-1.76,7.85,4.82-6.16,10.8-11.39,17.65-15.19Z"/>
      <path class="cls-14" d="m177.79,826.18c-11.66,2.82-23.62,4.39-35.62,4.6,11.26,5.31,24.43,1.32,35.62-4.6Z"/>
      <path class="cls-14" d="m310.98,771.5c-2.37-8.66,3.25-17.7,10.45-23.06,7.2-5.36,15.92-8.23,23.63-12.82,19.18-11.41,30.83-32.55,49.55-44.7-30.9,16.88-59.68,38.44-90.34,56-27.91,15.99-59.71,38.4-90.81,48.02,1.73-.37,3.52-.6,5.19-.92-9.83,12.36-24.1,22.53-37.71,30.4-1.03.6-2.08,1.18-3.15,1.74,21.17-5.12,41.34-14.39,58.91-27.28,9.3-6.82,18.44-14.88,29.79-16.91,8.8-1.58,17.81.72,26.75.7,7.28-.02,14.35-1.57,21.26-3.88,2.42-2.66,4.88-5.32,7.41-7.95-3.65.22-7.29.44-10.93.65Z"/>
      <path class="cls-14" d="m213.46,794.95c-1.18.25-2.34.56-3.43,1.01,1.14-.32,2.29-.66,3.43-1.01Z"/>
      <path class="cls-14" d="m321.91,770.85c-2.53,2.64-5,5.3-7.41,7.95,7.15-2.39,14.13-5.59,20.97-8.77-4.52.27-9.04.54-13.56.81Z"/>
      <path class="cls-14" d="m559.83,770.12c-.28-12.02-2.54-24.22-5.76-35.77-6.6-23.7-18.59-45.94-35.02-64.28-8.44-9.42-18.43-18.71-23.02-30.1,10,32.54,34.72,60.29,40.29,94.07-11.54,3.18-22.44-5.79-32.1-12.86-26.05-19.07-59.48-27.76-91.51-23.8,22.59,6.12,45.18,12.25,67.77,18.37,7.23,1.96,14.51,3.94,21.27,7.19,6.57,3.16,12.51,7.46,18.41,11.74,5.87,4.26,11.75,8.52,17.62,12.77,5.32,3.85,10.99,8.23,12.59,14.6.56,2.25.39,5.83.88,9.01,2.05,2.45,3.84,4.71,5.36,6.7,4.44.72,3.31-3.95,3.23-7.64Z"/>
      <path class="cls-14" d="m496.04,639.97c-.89-2.9-1.68-5.82-2.31-8.8.37,3.08,1.18,6.01,2.31,8.8Z"/>
      <path class="cls-14" d="m555.62,777.54c.35.1.68.17.98.22-1.52-1.99-3.3-4.25-5.36-6.7.47,3.02,1.52,5.68,4.38,6.48Z"/>
      <path class="cls-14" d="m291.84,684.65c3.67-.92,7.74-5.32,11.35-9.49-4.33,2.51-8.39,5.69-11.35,9.49Z"/>
      <path class="cls-14" d="m458.9,565.53c-.23-1.44-.47-3.36-1.9-3.56-.68-.1-1.33.29-1.91.67-8.25,5.41-16.12,11.41-23.51,17.94-6.34,5.6-12.38,11.62-19.43,16.29-14.18,9.4-31.69,12.87-45.72,22.5-7.46,5.12-13.68,11.8-20.46,17.78-5.73,5.04-11.88,9.59-17.79,14.42-6.74,5.5-13.17,11.37-19.44,17.4-1.59,1.53-3.49,3.82-5.54,6.19,2.11-1.22,4.27-2.3,6.42-3.19,5.05-2.09,10.43-3.35,15.31-5.82,5.5-2.78,10.13-6.98,14.7-11.12,16.13-14.57,32.9-29.15,53.03-37.35,8.79-3.58,18.06-5.87,26.79-9.58,10.97-4.66,21.01-11.52,32.39-15.09,5.87-1.85,12.19-2.86,17.21-6.43,5.02-3.57,8.14-10.91,4.66-15.98-4.67,4.36-13.78,1.23-14.79-5.08Z"/>
      <path class="cls-14" d="m476.18,601.67c-4.52,4.77-9.04,9.54-13.55,14.31,5.88-2.04,12.57-2.78,18.21-.14,2.12.99,4,2.42,5.86,3.84,10.63,8.09,21.42,16.34,29.23,27.18,2.97,4.12,5.46,8.56,7.95,12.99,5.99,10.66,11.98,21.33,17.97,31.99.45-2.23-.55-4.47-1.54-6.53-5.09-10.62-10.17-21.25-15.26-31.87-2.87-5.99-5.91-12.8-11.01-17.26-4.49-3.92-8.14-5.27-11.01-11.08-5.72-11.55-6.17-25.04-12.59-36.32-1.22-2.14-2.7-4.4-2.4-6.84-.82,7.77-6.48,14.05-11.86,19.72Z"/>
      <path class="cls-14" d="m223.49,1208.46c4.97.8,9.97,1.11,14.99.59l-44.49-16.3c-4.34-1.59-8.69-3.19-12.85-5.18,7.15,4.01,14.19,7.73,21,11.17,6.97,3.51,14.15,6.74,21.35,9.72Z"/>
      <path class="cls-14" d="m150.81,1161.19c-7.35-8.66-14.62-17.49-20.17-27.39-4.34-7.73-7.65-16.15-13.35-22.94-7.83-9.34-19.36-14.69-28.5-22.75-9.07-8-15.56-18.45-21.91-28.75-4.49-7.28-9.06-14.73-10.97-23.08,4.5,18.42,9.19,37.28,19.79,53.01,11.34,16.85,28.29,28.54,42.67,42.53,6.65,6.47,11.47,10.53,9.58,19.92-.07.34-.14.69-.22,1.04,14.97,11.38,30.43,21.46,45.52,30.27-8.62-5.86-15.66-13.89-22.43-21.87Z"/>
      <path class="cls-14" d="m129.63,1176.94c3.45,3.89,8.66,5.62,13.62,7.2,19.39,6.17,38.77,12.34,58.16,18.51,7.23,2.3,14.62,4.61,22.09,5.81-7.2-2.98-14.38-6.21-21.35-9.72-6.82-3.44-13.85-7.16-21-11.17-1.44-.69-2.86-1.42-4.25-2.22-1.25-.72-2.46-1.49-3.64-2.29-15.09-8.81-30.55-18.88-45.52-30.27-1.75,8.23-4.47,16.97,1.9,24.14Z"/>
      <path class="cls-14" d="m89.49,1182.46c-1.08-5.51-5.17-13.46-11.03-23.42,5.97,18.68,11.51,37.51,16.58,56.46,5.04,18.83,9.64,38.74,4.7,57.6-1.35,5.15-2.39,12.43,2.64,14.18,3,1.04,7.08-.68,9.04,1.82,3.27,4.17-6.1,8.19-6.02,13.49,6.68.99,13.79-2.51,17.09-8.4s2.57-13.78-1.76-18.96c-1.8-2.16-4.16-3.89-5.49-6.37-1.84-3.44-1.35-7.59-.9-11.46,1.94-16.74,1.91-33.98-.35-50.89-14.05-8.48-23.12-16.96-24.52-24.03Z"/>
      <path class="cls-14" d="m73.08,1119.41c-11.89.43-1.97,17.31,0,23.2,1.83,5.46,3.62,10.94,5.37,16.43,5.86,9.96,9.94,17.91,11.03,23.42,1.39,7.07,10.46,15.55,24.52,24.03-3.12-23.33-10.49-46.05-22.88-66.01-2.94-4.73-11.63-21.3-18.04-21.07Z"/>
      <path class="cls-14" d="m567.31,264.51l27.17,8.99c.38-11.04.41-22.08.09-32.9l-8.98,4.61c-5.09,6.31-11.04,13.01-18.28,19.3Z"/>
      <path class="cls-22" d="m549.36,387.68l24.4,8.07c3.97-10.67,7.43-22.82,10.33-35.95l-24.57,12.62-10.16,15.25Z"/>
      <path class="cls-14" d="m592.01,236.96c-.81,1.07-1.65,2.17-2.52,3.29l5.05-.42c-.06-1.88-.13-3.76-.21-5.62,0,0-2.48,2.55-6.83,6.2l1.21-.1c1.16-1.14,2.27-2.26,3.3-3.35Z"/>
      <path class="cls-14" d="m540.52,332.22l-1.58,4.94c.52-.02,1.05-.04,1.58-.06v-4.88Z"/>
      <path class="cls-14" d="m573.95,251.19l-1.49,2.24c2.59-1.7,4.99-3.44,7.22-5.18l-5.72,2.94Z"/>
      <path class="cls-14" d="m564.19,280.83l3.04,4.49c4.83-1.93,9.57-4.18,13.58-6.8l-16.62,2.31Z"/>
      <path class="cls-13" d="m582.65,278.26c-3.96,3.98-8.25,7.62-12.81,10.91l2.61,3.86-7.47,22.41h0l-.53,1.6-2.15-10.38c-1.47.71-2.96,1.39-4.49,2.04-8.77,3.99-23.01,9.76-47.71,8.6-28.06-1.32-42.16-3.73-46.28-9.85-3.45-5.11,12.04.48,17.39,2.25,8.77,2.9,19.94,4.54,29.14,5.38,20.8,1.89,35.24-1.2,47.46-6.38,1.69-.77,3.17-1.47,4.49-2.04l-1.85-8.96-1.41-1.7c-6.31,3.47-12.97,6.3-19.86,8.38l-6.22,8.98v-7.32c-12.88,3-26.35,3.47-39.42,1.43-4.52-.7-34.86-6.65-22.54-13.36,4.94-2.7,11.91.45,16.96,1.28,6.63,1.09,13.35,1.67,20.06,1.75,8.35.1,16.71-.57,24.94-1.99v-10.49c-.05.02-.1.04-.15.06-32.55,11.45-56.68,5.59-57.16,3.53-1.54-6.6,3.65-8.81,9.81-11.63s13.16-2.98,19.92-3.29c8.73-.41,16.68-1.4,23.96-2.82l.18-.28-14.42-5.21c-3.19-.7-5.99-1.74-8.48-3.07l-6.2-2.24,2.45-.15c-5.93-4.54-9.64-11.33-12.28-19.94-1.65,4-1.37,9.02-.89,13.5-.31-4.64-3.03-8.71-4.75-13.03-1.22-3.06-5.15-17.62.18-18.5.41-.07.78,0,1.12.14-.27-2.72-.57-5.44-.95-8.14-.33-2.32-4.54-12.04-1.72-13.38.01,0,.04,0,.05,0-1.17-8.58-2.49-17.78-4.32-27.49-2.16-8.65-3.44-17.55-6.41-25.96-1.75-4.95-4.06-9.67-6.37-14.38-5.4-11.01-9.8-22.5-16.28-32.96,3.37,4.68,6.77,9.37,10.73,13.56-4.85-10.28-10.48-19.56-17.02-27.96.1,2.59.38,5.26-.14,7.76-2.18-5.36-5.62-10.19-9.92-14.06-.06,1.45.09,2.9.48,4.3-1.22-2.11-2.21-4.33-3.22-6.55-.07-.05-.13-.1-.19-.15-2.22-1.63-9.85-5.61-8.99-8.93,2.37,1.84,4.69,3.74,7.29,5.04-.29-.58-.59-1.16-.91-1.73-1.95-3.51-4.57-5.75-7.38-8.44.26.1.52.19.77.28-.74-.59-1.48-1.19-2.24-1.77l.03.02c46.1-13.9,81.63-4.01,118.56,30.75,14.25,13.41,25.25,31.41,33.4,48.47l1.95-.16-1.62.83c12.75,26.89,18.37,51.24,18.37,51.24-6.07-74.8-64.03-132.87-102.4-145.24-38.37-12.36-78.78,6.51-78.78,6.51l.04.03c-2.22-1.5-4.44-2.93-6.66-4.29,0,0,41.88,45.44,52.09,105.38,2.15-5.46,3.19-11.34,4.2-17.14,1.92,1.41,2.57,3.94,3.01,6.28.96,5.12,1.55,10.31,1.76,15.51.1,2.59.11,5.2-.46,7.73-.4,1.79-1.09,3.52-1.37,5.34-1.02,6.63,3.53,13.22,2.38,19.83.04-3.39-1.41-6.6-2.83-9.68-.4-.87-.82-1.75-1.28-2.61.58,4.8.95,10.14.89,15.83-6.89,16.43-21.38,42.4-45.46,47.3-20.72,4.22-59.1,14.61-92.32,22.75-22.82,2.83-53.06,4.7-62.42-3.47-5.48-8.58,3.88-8.45,47.85-20.09,43.97-11.64,100.17-32.71,100.17-32.71,0,0,23.8-8.61-30.42,5.35-54.21,13.97-131.34,21.43-116.49,8.8,14.85-12.63,138.71-44.08,90.13-37.17-34.74,4.94-80.77,19.8-106.71,22.15-3.8.34-7.24-.9-10.06-2.62.02.08.03.16.06.25.74,2.33,3.36,3.41,5.71,4.1,3.67,1.07,7.41,1.87,11.19,2.4-5.03-.44-10.06-.88-15.09-1.32-7.59-.66-15.69-1.53-21.54-6.39-4.88-4.05-7.43-10.41-7.94-16.74-.22-2.69-.71-15.37,3.15-15.77,1.32-.14,2.69,1.72,4,4.05-.19-.88-.34-1.78-.45-2.67-.34-2.79.27-8.18-.8-11.64-.6-.69-1.07-1.47-1.32-2.34.61.56,1.02,1.38,1.32,2.34.15.17.3.32.46.47-.6-5.5-.6-10.92.09-15.91.93-6.69.38-13.54-1.64-19.98-.02.4-.02.8-.03,1.2-.03,2.35-.01,4.71.05,7.06-2.29-5.22-4.16-10.62-5.62-16.14-.05,2.13.37,4.36,1.33,6.68.78,1.89-.37,5.61-1.26,8.91.22,3.62.39,6.42.57,6.41-2.14.03-1.49-2.96-.57-6.41-.38-6.28-.92-15.04-1.86-16.05-2.22-2.37-6.73-5.11-10.1-7.9-.41-.09-.82-.19-1.23-.32-2.62-.85-14.58-9.87-14.43-12.87,2.13-.16,5.47,1.19,8.66,2.29-1.09-.48-2.21-.93-3.36-1.34-12.5-4.43-19.08,2.02-36.42,7.7-15.09,3.11-39.4,7.68-44.12-3.3-4.71-10.98,64.48-73.35,122.02-86.86,57.54-13.5,150.15,16.84,150.15,16.84,0,0-48.44-32.75-132.17-23.88-83.73,8.88-137.55,57.64-154.88,78.09-17.34,20.45-8.77,25.51-8.77,25.51,8.15.74,15.46,1.05,22,1.06,20.49.78,49.69,1.3,62.11-1.3,20.08-4.2,37.57,12.27,36.61,30.43-.96,18.16-8.55,61.9,8.18,75.59,11.81,9.66,17.71,19.71,21.34,29.31.98,10.74,3.28,33.12,6.1,42.83,3.78,13.02-6.48,54.17-3.02,70.07,3.46,15.9,17.1,32.54,17.1,32.54,0,0-17.75-23.14-15.68-41.65s7.46-37.8,8.17-44.09c.24-2.18,1.5-5.78,3.02-9.55.42.97.85,1.91,1.28,2.83-2.45,12.51-8.12,44.06-6.2,59.57,2.43,19.61,14.96,28.27,14.96,28.27,0,0-13.74-14.03-13.3-34.13.31-14.01,5.42-35.04,8.48-46.5,1.81,2.76,3.69,4.86,5.6,5.95,6.77,3.84,27.25-6.39,46.27-17.15.15.79.43,1.56.82,2.28-.3.14-.59.31-.85.51-1.75,1.32-2.61,3.56-2.78,5.74-.1,1.37-.08,2.92.28,4.32-.31,1.48.5,4.07.36,7.49-.21,5.46.9,9.93.78,13.41-.12,3.48-5.17,6.54-6.85,8.37-.61.66-.92,1.53-.98,2.46-1.43.76-2.75,1.7-3.95,2.79-3.02-.22-5.95-1.49-8.17-3.56.88,3.37,1.76,6.75,2.64,10.12.11.44.23.88.37,1.32-.44,1.28-.75,2.63-.91,4.03-.39,3.51.2,6.89,1.54,9.9-1.02-.1-2.11.31-2.92.98-1.1.92-1.8,2.23-2.49,3.49-.69,1.26-1.45,2.55-2.63,3.36,3.55.18,7.09.37,10.64.55-.43,2.65-.08,4.74,1.4,5.91,0,0,7.23,6.68,14.72,10.09-14.64,57.45-46.05,75.28-72.47,91.66-48.9,30.32-85.09,29.35-97.84,24.49-31.66-12.08-34.85-59.28-49.38-71.02-.43.09-.87.18-1.31.28,0,0-.4-.24-1.03-.69,1.94,3.34,6.37,11.77,7.77,21.47,1.81,12.56,18.86,59.37,70.22,56.53,36.74-2.03,84.14-35.2,107.32-54.9,0,0,0,0,0,0,0,0,0,0,0,0,2.17-2.05,4.2-4.01,6.08-5.84,1.87-1.81,3.59-3.49,5.15-5.01.57-.56,1.13-1.13,1.69-1.71.28-.29.56-.56.84-.85h0s0,0,0,0c9.94-11.06,26.01-44.98,30.61-52.46.7-.01,1.37-.09,2.01-.25-5.82,13.64-16.99,36.37-32.62,52.71-.03.03-.05.06-.08.09-1.31,2.07-6.25,7.01-13.68,13.32-15.48,14.68-37.92,34.31-62.78,45.79,6.14,12.95,11.71,26.66,12.12,42.82.15,6.07.31,12.08.43,17.85.56-22.78,4.63-39.72.53-53.31,32.2-19.36,87.08-76.36,104.19-87.73,17.11-11.37,30.41-43.8,33.52-64.33,1.07-7.05,5.61-19.49,9.47-32.1,0-.76.02-1.52.01-2.29-.08-7.65,4.95-30.91,3.53-38.43-.67-3.52-.47-2.97-1.37-6.43,7.99,22.2,21.26,49.45,32.03,70.44-3.47-3.17-8.43-7.1-13.41-5.12-3.75,1.49-4.24,4.73-4.91,8.23-.35,1.81-.78,3.59-1.27,5.36,4.51,17.52,10.02,36.06,16.03,49.85,2.46,42.05,2.84,72.31,2.59,92.04-46.28,29.06-112.04,87.72-155.65,147.18-39.45,53.78-96.58,97.41-125.93,117.91,7.7-10.73,14.64-22.68,14.64-22.68,0,0,78.3-118.54,85.79-127.91,7.5-9.37.36-31.77.36-31.77,0,0,0,0,0,0,.06-5.78-.02-12.18-.15-18.91-.18,7.19-.44,13.99-.7,19.9-17.36,20.01-30.56,52.55-60.9,98.28-7.53,11.35-36.02,49.9-55.66,77.31-.29,3.45-.58,6.91-.87,10.36-.14,1.67-.3,3.38-.58,5.07-.34,2.1-.86,4.14-1.74,5.99h0s2.8.33,2.8.33c-.93-.04-1.86-.08-2.79-.12,0,.03,0,.05,0,.08,1.48.32,2.96.67,4.43,1.03h0c3.56-1.69,5.91-4.28,10.68-10.69,21.23-13.34,61.91-43.19,98.25-79.85,38.79-39.13,92.86-106.81,139.71-148.75,10.41-4.13,37.34-17.15,47.62-19.83-.22,4-.4,5.94-.4,5.94,0,0,8.83,6.11,15.66,7.19-.83,3.17-3.12,6.33-7.25,8.8-14.39,8.59-91.14,51.02-123.61,91.44-32.47,40.41,97.64-65.88,114.68-69.34,17.04-3.46-73.11,57.88-123.5,100.04-50.39,42.16-91.45,105.87-134.04,126.34-2.71,1.31-22.81,11.38-30.62,12.81-2.73.5-6.73.49-9.82.39-1.98.38-3.98.68-5.99.88-1.82,1.23-3.28,1.73-3.87,2.04,1.96-.16,3.93.51,5.6,1.65,19.07.26,70.85-18.31,122.97-77.3,121.14-137.11,222.51-174.09,238.49-186,.88-.66,1.66-1.44,2.35-2.31,9.43,2.04,7.35,10.36,9.12,16.25,2.05,6.84,9.21.47,15.92,1.78,5.19,1.02,8.44,12.88,9.64,18.18.15.21.3.44.47.68-.23-4.17-1.32-14.26-6.51-18.62-6.63-5.58-13.88-5.59-16.97-13.99-1.85-5.04-6.24-7.19-9.46-8.11,7.23-17.55-6.7-56.51-12.61-71.66-2.17-9.44-43.76-25.94-43.76-25.94h0c-1.33-8.93-2.62-17.97-3.84-26.79,2.23,3.97,4.5,7.16,6.8,9.28h0c5.72,7.66,13.23,14.59,22.96,20.42,38.5,23.06,86.6,15.24,115.54-8.43l-2.19-10.59-10.91-13.09-12.1,17.47c5.25,1.09,10.83,2.1,16.79,3.1-6.14-.21-12.31-.24-18.59-.5l-8.18,11.82v-12.31c-19.12-1.6-39.46-6.85-62.92-26.82-21.29-18.12-29.06-50.07-29.21-55.76-.52-18.89,5.24,18.53,37.47,49.3,16.33,15.59,32.58,23.41,54.67,28.91v-24.38l-16.2,8.19.51-.8,10.63-16.65c-10.28-2.13-22.18-6.25-36.41-14.19-24.41-13.63-46.67-40.05-41.2-41.65,6.61-1.93,13.23,15.87,40.64,32.58,5.26,3.2,10.26,5.99,15.04,8.43l21.48-1.32-13.84-20.39c-1.43-.37-2.88-.76-4.37-1.19-.41-.12-.81-.24-1.22-.36h-19.41l10.76-2.87c-20.55-7.54-38.8-19.12-34.97-21.29,5.29-3,14.54,10.73,41.01,19.68l19.15-5.11,16.15,12.97c.77.08,1.54.15,2.3.21l8.7-15.59c-4.33.48-8.69.71-13.05.63-8.25-.14-16.48-1.32-24.46-3.43-.64.02-1.28.04-1.93.05.59-.04,1.18-.06,1.77-.1-5.39-1.44-10.67-3.3-15.76-5.58-4.18-1.87-31.88-15.59-18.23-18.82,5.48-1.3,11.37,3.57,16.03,5.7,6.11,2.8,12.44,5.12,18.9,6.97,12.93,3.7,26.41,5.47,39.86,5.27.67-.01,1.38-.02,2.1-.03l7.84-14.06.53,13.79c11.61-.58,25.34-2.26,33.39-7.78-10.04,6.88-21.32,11.9-33.12,14.88l.7,18.12c2.14-.16,4.21-.34,6.22-.54l.08-.07,3.22-.27c2.26-.24,4.45-.47,6.6-.69-1.2.12-2.4.27-3.6.44l28.17-2.32c5.46-25.04,8.91-53.57,10.06-82.16l-11.72,1.63Zm-295.55,85.61c-.88-2.38-1.25-4.99-.95-7.69.07-.59.16-1.16.29-1.73.1.1.19.21.3.3.64.57,1.94,1.78,3.15,2.29-.05.91-.01,1.8.12,2.68-1.34.86-2.32,2.49-2.9,4.16Zm118.46,90.42c-.09-.59-.18-1.17-.27-1.77,16.35,4.74,40.43,26.07,24.87,31.42-5.3,1.82-11.4,4.61-18.1,8.23-1.61-8.27-3.25-17.65-4.85-27.55-1.35.04-2.1.23-2.1.23l-1.5-11s.56-.01,1.97.44Zm-111.35-110.63c2.18-1.32,4.67-2.15,7.3-2.36-.12.14-.24.28-.36.43-.53.62-1.06,1.24-1.41,1.97-.26.54-.41,1.06-.48,1.56-.21.06-.41.14-.61.21-.54-.73-1.37-1.2-2.24-1.47-.72-.22-1.45-.31-2.19-.34Zm6.79,31.11c-1.54-.17-3-.56-4.37-1.11.35-.12.7-.27,1.03-.47,1.02-.62,1.75-1.61,2.16-2.73.53.13,1.07.24,1.63.3.58.07,1.16.08,1.73.07.54,1.31,1.37,2.51,2.14,3.71.03.04.06.09.08.13-1.43.22-2.9.27-4.41.1Zm9.99-27.2c-.12-.09-.23-.18-.35-.27.1-.62.13-1.25.09-1.87-.05-.81-.18-1.61-.35-2.41,1.82.91,3.44,2.12,4.79,3.58-.53.08-1.06.15-1.59.24-.88.15-1.8.33-2.59.73Zm2.41,23.6c.15-1.4.25-2.57.26-3.33.01-.78,0-1.6-.27-2.31.24-.33.47-.67.68-1.02.09.06.18.12.29.18.95.48,2.07.47,3.14.45.2,0,.41,0,.61-.01-1.1,2.37-2.72,4.43-4.72,6.03Zm6.25-12.35c-.71-.51-1.41-1.03-2.12-1.54-.52-.38-1.09-.76-1.68-.99-.07-.58-.17-1.14-.31-1.69,1.17-.42,2.3-.94,3.39-1.52.57,1.82.82,3.75.72,5.75Zm23.11-33.36c-6.59,4.9-18.97-2.13-25.96.31-6.71,2.34-3.59,5.28-7.92,11.48-.3-1.48-.44-2.95-.15-4.44-.37.44-.74.87-1.11,1.31.27-.64.48-1.16.62-1.51.26-.65.4-1.3.44-1.95.11-.51.17-1.03.22-1.52.21-2.07.62-4.16,1.65-5.96,1.03-1.8,2.76-3.3,4.81-3.63,1.02-.17,2.25-.13,2.85-.97.67-.94.05-2.26.33-3.38.33-1.34,1.94-2.03,3.3-1.82,1.36.21,2.52,1.08,3.59,1.95,1.07.87,2.16,1.8,3.49,2.15,1.33.36,2.98-.04,3.6-1.27.61-1.21-.03-2.75-1.09-3.6-1.06-.85-2.44-1.17-3.76-1.46-2.68-.6-5.36-1.19-8.04-1.79-2.89-.64-6.09-1.5-7.62-4.04-.16-.26-.29-.54-.41-.82,1.13.45,2.36.69,3.38.1.57-.33.96-.86,1.2-1.48.75.82,1.55,1.52,2.4,2.04,7.54,4.61,20.81,1.26,20.81,1.26,7.86-.92,15.3-12.1,18.34-22.3.79-2.64,1.02-8.72,3.01-8.63.66.54,1.12,1.11,1.13,1.75.25,15.74-12.51,43.32-19.11,48.22Zm85.42,90.32c17.39,25.43,37.53,34.26,70.08,35.09-13.84,1.27-51.7,5.58-79.5-30.48-17.07-22.14-18.05-55-17.03-60.61,3.41-18.59,1.28,19.22,26.44,55.99Zm32.67-184.53c-.24,3.64-1.23,7.19-2.2,10.7-.41,1.46-.82,2.93-1.41,4.32-3,10.13-12.83,17.73-23.2,20.81-11.75,3.49-24.28,2.52-36.54,2.37-12.19-.16-28.31,1.07-40.53,2.61,0,0,0,0,0,0-.12.02-.24.04-.36.06-.07,0-.15.02-.22.03,0,0,0,0,0,0-17.62,2.52-34.98,6.79-51.74,12.76,9.85-3.51,14.94-6.57,25.36-9.64,10.55-3.1,24.87-7.07,35.82-8.05,27-2.42,41.13.4,61.09-7.2,10.29-3.92,20.01-9.31,28.75-16.02,1.35-2.05,1.98-3.85,2.91-6.29-9.05,4.53-17.81,6.5-26.85,11.03,7.65-5.66,14.88-11.89,21.59-18.64,2-2.01,4.09-4.39,4.02-7.23-2.56.91-5.13,1.82-7.7,2.73,1.77-1,8.98-6.02,11.25-8.46,1.9-2.03.16,11.61,0,14.1Z"/>
      <path class="cls-14" d="m493.4,584.51v-.04s0-.02-.01-.03c0,.04.01.07.01.07Z"/>
      <path class="cls-14" d="m84.56,434.94c-1.03-.83-2.12-1.49-3.28-1.94,0,0,.36.55.93,1.53.64.44,1.03.69,1.03.69.45-.09.88-.19,1.31-.28Z"/>
      <path class="cls-14" d="m493.39,584.44s0,.02.01.03c0-.17,0-.82-.06-1.81-.17-.24-.32-.47-.47-.68.3,1.31.47,2.22.52,2.47Z"/>
      <path class="cls-14" d="m489.62,343.87c.65-.01,1.29-.03,1.93-.05-.06-.01-.11-.03-.17-.04-.59.03-1.17.05-1.77.1Z"/>
      <path class="cls-14" d="m88.78,809.72c-.71.38-.15.51,2.6,1.42.88.14,1.89.21,3,.23-1.67-1.14-3.64-1.81-5.6-1.65Z"/>
      <path class="cls-14" d="m267.52,457.63s0,0,0,0c2.17-2.05,4.19-4.01,6.07-5.84-1.88,1.83-3.91,3.78-6.08,5.84Z"/>
      <path class="cls-14" d="m281.28,444.23c-.28.29-.56.56-.84.85.28-.29.56-.56.84-.85h0Z"/>
      <path class="cls-14" d="m101.28,782.31c-1.47-.36-2.95-.71-4.43-1.03.23,1.38,3.1,1.38,4.43,1.03Z"/>
      <path class="cls-14" d="m96.84,781c.87-1.85,1.4-3.89,1.74-5.99.27-1.68.44-3.4.58-5.07.29-3.45.58-6.9.87-10.36-.41.58-.83,1.15-1.23,1.72-.57,6.77-1.39,12.92-1.96,19.69Z"/>
      <path class="cls-14" d="m94.09,806.6c-.5.42-.98.77-1.44,1.08,2.01-.2,4.01-.5,5.99-.88-2.66-.09-4.64-.24-4.55-.2Z"/>
      <path class="cls-14" d="m99.64,781.33l-2.8-.33c0,.07,0,.14,0,.2.93.04,1.86.08,2.79.12Z"/>
      <path class="cls-31" d="m557.72,422.62l-2.13,6.39c1.32-1.53,2.56-3.11,3.73-4.73,3.87-5.35,7.46-11.89,10.75-19.4l-22.26,3.1,9.91,14.64Z"/>
      <path class="cls-14" d="m547.95,291.71c1.85-.53,3.88-1.13,6.03-1.79l-2.62-3.14-3.41,4.93Z"/>
      <path class="cls-14" d="m559.65,215.49l-.2-5.3-2.96,5.31c.68,0,1.35.01,2.03.02.38,0,.76-.01,1.13-.02Z"/>
      <path class="cls-14" d="m556.47,215.54l-15.67,28.08-14.85-11.93-29.95,8h19.95l12.41,18.28-25.49,1.57c.33.25.68.48,1.02.72l22.64,2.93,1.77,3.1c2.62-.04,5.21-.26,7.77-.62l-.71-.06,7.17-2.67,1.06,1.26c4.16-1.04,8.18-2.41,12.03-4l9-8.18-3.63,5.77c.27-.13.54-.26.81-.4l3.2-5.37-1.68,4.61c8.41-4.31,15.6-9.36,20.95-13.57l-11.72,3.21-6.58-2.92,20.33-1.93c.42-.34.83-.68,1.22-1.01l-21.55,1.77-5.09,4.64-1.2-31.31c-.38,0-.76,0-1.14,0-.69.01-1.37.02-2.05.02Zm-39.47,23.46l4.94-2.5,7.6,20.62-12.54-18.12Zm24.46,16.6l-6.83.42-1.12-17,7.96,16.58Zm-6.92,9.83l7.33-3.88.54.92-7.88,2.96Zm23.58-20.58l-6.67,2.17-4.5,12.17,1.61-11.67,9.56-29.83v27.17Z"/>
      <path class="cls-14" d="m534.74,279.02l7.12-.83c0,.1-.16,1.3-.4,3.03,2.48-1.13,4.86-2.32,7.14-3.58l-.05-.07.07.07c.91-.5,1.8-1.02,2.68-1.54l-4.85-2.16,3.33-2.5,3.65,3.36c.18-.11.35-.23.53-.34l-3.6-3.4.46-.71,3.56,3.84c4.73-3.02,9.02-6.29,12.93-9.69l-1.83-.61,6.98-10.47c-3.1,2.03-6.46,4.02-10.13,5.89l-1.93,5.27-3.01.2,2.56-4.29c-.32.15-.63.31-.95.46l-2.37,3.76-4.08.38.89-1.7c-2.55,1.04-5.24,2.02-8.04,2.94l.15.18-.56-.05c-4.83,1.56-10.03,2.92-15.65,4.02l-9.88,15.47,13.5-6.83v5.52c.54-.19,1.06-.39,1.59-.59l.2-5.05Zm-14.87,6.27l12.99-12.36,10.62,1.75c-.5.12-9.12.92-9.12.92l-14.49,9.69Z"/>
      <path class="cls-14" d="m521.95,266.05l-17.81-5.61c.79.53,1.61,1.04,2.47,1.5l8.48,3.07s.03,0,.04.01c2.28.5,4.55.83,6.82,1.04Z"/>
      <path class="cls-14" d="m534.12,294.94c-.39.07-.78.15-1.17.22v10.89c.25-.06.49-.12.74-.18l.43-10.93Z"/>
      <path class="cls-14" d="m547.86,291.73c-2.69.78-5.4,1.45-8.14,2.06-.14,1.01-.23,1.64-.23,1.64l-3.84,9.92c1.18-.31,2.36-.64,3.52-.99l8.77-12.67s-.06.02-.09.03Z"/>
      <path class="cls-14" d="m579.68,248.25l5.92-3.04c.88-1.08,1.72-2.16,2.55-3.21l-1.68.46c-2.06,1.91-4.32,3.86-6.8,5.8Z"/>
      <path class="cls-14" d="m596.33,239.69l-1.78.15c0,.25.02.5.03.76l1.76-.9Z"/>
      <path class="cls-14" d="m562.3,306.65h0c.07-.03.14-.06.2-.09-.06.03-.14.06-.2.09Z"/>
      <path class="cls-14" d="m556.84,289.02c-.97.31-1.93.61-2.87.9l5.06,6.08c.68-.37,1.36-.75,2.03-1.14l-4.23-5.84Z"/>
      <path class="cls-14" d="m559.26,288.23l4.84,4.82c1.96-1.23,3.87-2.53,5.75-3.88l-2.61-3.85c-2.67,1.07-5.36,2.03-7.97,2.91Z"/>
      <path class="cls-14" d="m588.04,272.39c-.58.68-1.22,1.34-1.9,1.99h.13c.59-.65,1.19-1.31,1.77-1.99Z"/>
      <path class="cls-14" d="m582.74,277.18c-.62.45-1.26.9-1.93,1.33l1.83-.25c.38-.39.75-.79,1.13-1.18l-1.04.11Z"/>
      <path class="cls-14" d="m589.5,240.25l-.79.06c-.33.32-.66.65-1,.97l1.07-.1c.24-.31.49-.63.73-.94Z"/>
      <path class="cls-14" d="m598.78,275.52l-4.39.45c0,.22-.02.43-.03.65l6.75-.94-6.63-2.19c-.02.54-.04,1.09-.06,1.63l4.36.4Z"/>
      <path class="cls-14" d="m583.78,277.08c-.38.39-.75.8-1.13,1.18l11.72-1.63c0-.22.02-.43.03-.65l-10.62,1.1Z"/>
      <path class="cls-14" d="m534.54,284.08c-.53.2-1.06.4-1.59.59v10.49c.39-.07.78-.15,1.17-.22l.42-10.86Z"/>
      <path class="cls-14" d="m572.46,253.43l1.49-2.24,5.72-2.94c2.47-1.94,4.73-3.89,6.8-5.8l-2.22.61c-5.34,4.21-12.54,9.26-20.95,13.57l-.98,2.69c3.67-1.88,7.04-3.86,10.13-5.89Z"/>
      <path class="cls-14" d="m553.42,263.41l1.2-2.3,1-.91c-3.84,1.59-7.87,2.96-12.03,4l1.79,2.14c2.8-.92,5.49-1.9,8.04-2.94Z"/>
      <path class="cls-14" d="m588.77,241.19l3.51-.33-4.14,1.13c-.83,1.06-1.68,2.13-2.55,3.21l8.98-4.61c0-.25-.02-.5-.03-.76l-5.05.42c-.24.31-.48.62-.73.94Z"/>
      <path class="cls-14" d="m533.49,310.94l.2-5.08c-.25.06-.49.12-.74.18v7.32l6.22-8.98c-1.17.35-2.34.68-3.52.99l-2.16,5.58Z"/>
      <path class="cls-14" d="m559.94,260.51l1.85-3.11c-.27.13-.54.27-.81.4l-2,3.17c.32-.15.64-.31.95-.46Z"/>
      <path class="cls-14" d="m554.39,274.19l5.14,5.54-5.57-5.27c-.18.11-.35.23-.53.34l4.68,4.32-6.81-3.02c-.88.52-1.77,1.03-2.68,1.54l10.63,10.59c2.62-.88,5.31-1.85,7.97-2.91l-3.04-4.49,16.62-2.31c.66-.43,1.31-.88,1.93-1.33l-17.79,1.84-2.92-6.83,24.11,2.19c.68-.64,1.32-1.31,1.9-1.99-.58.68-1.17,1.34-1.77,2l8.15.74c.02-.54.04-1.09.06-1.63l-27.17-8.99c-3.91,3.39-8.2,6.66-12.93,9.69Z"/>
      <path class="cls-14" d="m503.37,260.19l.52.07c-.34-.24-.7-.47-1.02-.72l-2.45.15,6.2,2.24c-.86-.46-1.68-.96-2.47-1.5l-.77-.24Z"/>
      <path class="cls-14" d="m565.24,294.19l-3.75,1.25-.42-.58c-.67.39-1.35.76-2.03,1.14l1.41,1.7,1.85,8.96c.07-.03.14-.06.2-.09-.07.03-.14.06-.2.09l2.15,10.38.53-1.6h0l.97-19.25,4.29-1.75-5.26,21,7.47-22.41-2.61-3.86c-1.87,1.35-3.79,2.65-5.75,3.88l1.15,1.14Z"/>
      <path class="cls-14" d="m541.47,281.22c-.5,3.66-1.34,9.68-1.75,12.57,2.73-.61,5.45-1.29,8.14-2.06.03,0,.06-.02.09-.03l3.41-4.93,2.62,3.14c.94-.29,1.9-.59,2.87-.9l-8.23-11.38c-2.28,1.26-4.66,2.46-7.14,3.58Z"/>
      <path class="cls-14" d="m587.7,241.29c.34-.33.67-.65,1-.97l-1.21.1c-.39.33-.8.67-1.22,1.01l1.42-.14Z"/>
      <path class="cls-14" d="m536.08,265.67c-2.56.36-5.15.57-7.77.62l1.23,2.15-7.58-2.39c-2.26-.21-4.54-.54-6.82-1.04-.01,0-.03,0-.04-.01l14.42,5.21-.18.28c5.62-1.1,10.82-2.46,15.65-4.02l-8.9-.8Z"/>
      <path class="cls-14" d="m586.37,358.62l-2.07.17c-.07.34-.15.67-.22,1.01l2.29-1.18Z"/>
      <path class="cls-14" d="m542.81,399.06c1.05.1,2.1.18,3.14.27l-.04-.09c-1.02-.08-2.05-.14-3.1-.18Z"/>
      <path class="cls-14" d="m589.32,401.62l-18.68,1.93c-.19.45-.38.89-.57,1.33l22.05-3.07-18.36-6.08c-.54,1.47-1.1,2.9-1.66,4.31l17.23,1.56Z"/>
      <path class="cls-14" d="m556.14,361.11l-3,.25c-1.08.11-2.18.23-3.3.33l-.6.54c2.35-.41,4.64-.8,6.89-1.12Z"/>
      <path class="cls-14" d="m535.06,398.97c2.67,0,5.25,0,7.75.1-2.77-.25-5.61-.55-8.54-.94l.78.84Z"/>
      <path class="cls-14" d="m531.64,397.75l1.32,1.22c.37,0,.74,0,1.11,0l-1.08-1.02c-.45-.06-.9-.13-1.35-.19Z"/>
      <path class="cls-14" d="m549.25,362.23c-1.81.32-3.67.64-5.59.96l-.04-.96-.7-18.12-.27-7.1-.53-13.79-7.84,14.06-5.21,9.34-8.7,15.59-.63,1.13-1.67-1.34-16.15-12.97-19.15,5.11-6.04,1.61-10.76,2.87h23.94l1.05,1.55,13.84,20.39-21.48,1.32-12.05.74,34.91,12.63-.93,1.45-10.63,16.65,15.59-14.83,12.75,2.1c-.6.15-10.95,1.1-10.95,1.1l-17.39,11.63h0l-.51.8,16.2-8.19v41.06l8.18-11.82,1.8-2.6,12.1-17.47,10.91,13.09,2.19,10.59,2.61,12.62.64-1.91h0s.71-14.16.71-14.16l.45-8.93,5.15-2.1-1.83,7.29-4.48,17.9h0s6.83-20.5,6.83-20.5l2.13-6.39-9.91-14.64,22.26-3.1c.19-.44.38-.89.57-1.33l-21.92,2.27-2.77-6.49c-1.04-.08-2.08-.17-3.14-.27-2.5-.1-5.08-.1-7.75-.1l7.16,7.71-8.15-7.71c-.37,0-.74,0-1.11,0l7.56,6.97-14-6.21,1.03-.78,2.02-1.51.95-.71,1.12,1.03c.45.07.9.13,1.35.19l-1.77-1.68.55-.85,2.51,2.7c2.92.39,5.76.69,8.54.94,1.04.04,2.08.1,3.1.18l-.69-1.62,26.87,2.44c.56-1.41,1.12-2.85,1.66-4.31l-24.4-8.07,10.16-15.25,24.57-12.62c.07-.33.15-.67.22-1.01l-28.17,2.32c-2.26.32-4.54.71-6.89,1.12Zm-74.43,20.99l15.37,1.99,12.43,1.61,2.54,4.45,1.06,1.85-31.4-9.9Zm18.38-22.49l-2.03-2.94,1.35-.68,4.58-2.32,1.42,3.86,1.32,3.58,6.38,17.31-13.02-18.81Zm24.97,64.79l-2.37,6.11-1.31,3.37-3.53,9.12.37-9.33.16-4.16.97-24.81,8.55-1c0,.45-2.85,20.7-2.85,20.7Zm30.9-1.5l-4.5,1.5-15.52-21.45,20.02,19.95Zm-37.88-62.89l-.22-3.31,1.69,3.52,1.46,3.05,6.4,13.33-8.2.5-.93-14.12-.2-2.97Zm9.83,23.74l.65,1.1-9.45,3.55,8.8-4.65Zm-7.8,4.85l8.6-3.2,3.6,4.3-12.2-1.1Zm13.9-7.7l1.93-14,1.05-3.29.66-2.05,5.49-17.12,2.69-8.41,1.58-4.94v32.6l-8,2.6-5.4,14.6Zm6.7,7.1l2.5-4.8,12-10.9-9.6,15.25-4.9.45Zm9.44-.61l-3.62.24,9.13-15.33-5.51,15.09Zm14.56-21.99l-7.9-3.5,31.6-3-23.7,6.5Z"/>
      <path class="cls-14" d="m549.92,361.62l-.08.07c1.11-.11,2.21-.22,3.3-.33l-3.22.27Z"/>
      <path class="cls-1" d="m546.9,142l-4.45,4.05-1.23-31.99-16.29,29.19-12.97-10.42-26.16,6.99h17.42l10.83,15.97-24.4,1.5,25.4,9.19-8.41,13.17,11.34-10.79,9.28,1.53c-.44.11-7.97.8-7.97.8l-12.65,8.46-.37.58,11.79-5.96v29.88l16.08-23.21,7.94,9.53,3.49,16.89.46-1.39h0l.85-16.81,3.75-1.53-4.59,18.34,6.52-19.57-7.21-10.65,32.25-4.48-31.12-10.29,7.39-11.1,17.92-9.21c-.11-.22-.22-.45-.32-.67l-24.58,2.02Zm-54.65,15.72l20.23,2.62,2.62,4.58-22.85-7.2Zm11.9-18.5l4.31-2.18,6.64,18.01-10.95-15.83Zm19.65,49.28l-5.24,13.54,1.09-27.87,6.22-.73c0,.33-2.07,15.06-2.07,15.06Zm15.62-26.76l6.64-11.15-4.01,10.98-2.63.18Zm1.88,13.04l-8-7.57.4-.62,7.6,8.19Zm4.44-24.2l-6.99,11.1-3.57.33,1.82-3.49,8.73-7.93Zm-14.02-3.93l8.35-26.05v23.72l-5.82,1.89-3.93,10.62,1.4-10.19Zm-6.21,7.06l-5.97.36-.98-14.85,6.95,14.48Zm.36,5.2l.47.8-6.88,2.58,6.4-3.38Zm-5.68,3.53l6.26-2.33,2.62,3.13-8.88-.8Zm12.59,5.09l7.28,6.71-10.19-4.52,2.91-2.18Zm13.5,19.87l-3.27,1.09-11.3-15.61,14.57,14.52Zm29.29-16.3l-29.54,3.06-2.55-5.97,32.09,2.91Zm-22.92-25.54l-5.75-2.55,23-2.18-17.25,4.73Z"/>
      <path class="cls-14" d="m571.48,139.98c.11.22.22.45.32.67l1.62-.83-1.95.16Z"/>
      <path class="cls-14" d="m488.33,223.8c.2-1.87.45-3.75.77-5.6.09-.5.19-1.02.5-1.42.59-.76,1.68-.83,2.64-.83,20.69-.13,41.37-.25,62.06-.38.72,0,1.44,0,2.16-.02l.02-.04c-10.94-.09-21.88-.67-32.77-1.74-9.02-.89-18.12-2.15-26.5-5.62-2.11-.88-12.26-8.37-13.61-7.95,1.06,7.82,2,15.11,3.09,21.78.61.42,1.13,1.1,1.62,1.83Z"/>
      <path class="cls-14" d="m564.25,215.49c7.85-.1,16.22-.63,22.52-5.32-8.25,4.31-17.73,5.13-27.12,5.32v.03c1.53,0,3.07,0,4.6-.03Z"/>
      <path class="cls-14" d="m485.29,213.57c.38,2.7.69,5.42.95,8.14.16.07.32.15.46.25-1.09-6.67-2.03-13.96-3.09-21.78-.01,0-.04,0-.05,0-2.82,1.35,1.4,11.06,1.72,13.38Z"/>
      <path class="cls-14" d="m559.66,215.52v-.03c-.38,0-.76.02-1.14.02.38,0,.76,0,1.14,0Z"/>
      <path class="cls-14" d="m558.52,215.52c-.68,0-1.35-.01-2.03-.02l-.02.04c.68,0,1.37-.01,2.05-.02Z"/>
      <path class="cls-14" d="m503,231.94c14.19-2.21,28.64-1.75,42.99-1.28-14.92-.51-29.84-1.01-44.76-1.52-3.72-.13-7.84-.3-10.9-2.71-.71-.56-1.32-1.63-1.99-2.63-.18,1.63-.33,3.26-.42,4.9.77,3.9,1.64,7.54,2.67,10.91.62-1.51,1.51-2.88,2.78-4.02,2.59-2.33,6.19-3.1,9.64-3.64Z"/>
      <path class="cls-14" d="m488.67,246.32c-1.15-8.13-1.61-16.39-2.42-24.6-.34-.14-.71-.21-1.12-.14-5.33.88-1.4,15.44-.18,18.5,1.72,4.32,4.44,8.39,4.75,13.03-.48-4.48-.76-9.5.89-13.5-1.03-3.36-1.9-7.01-2.67-10.91-.32,5.88-.07,11.79.75,17.62Z"/>
      <path class="cls-14" d="m488.33,223.8c-.49-.73-1.01-1.41-1.62-1.83.38,2.32.78,4.56,1.21,6.73.09-1.64.24-3.27.42-4.9Z"/>
      <path class="cls-14" d="m487.92,228.69c-.43-2.17-.83-4.41-1.21-6.73-.15-.1-.3-.18-.46-.25.81,8.21,1.27,16.47,2.42,24.6-.82-5.83-1.07-11.74-.75-17.62Z"/>
      <path class="cls-14" d="m434.83,73.96c1.08-2.92,3.03-5.52,5.64-7.23,1.65-1.08,3.5-1.81,5.35-2.48,8.24-2.94,16.94-4.58,25.68-4.85-9.25-1.41-18.59,1.14-27.67,3.42-2.75.69-5.52,1.36-8.34,1.62-4.72.45-9.34-.33-13.76-1.94,4.47,3.58,8.66,7.39,12.57,11.42.17.02.35.03.52.04Z"/>
      <path class="cls-14" d="m428.34,70.66c.32.57.62,1.15.91,1.73,1.56.78,3.22,1.34,5.05,1.53-3.91-4.03-8.1-7.83-12.57-11.42-.26-.09-.52-.18-.77-.28,2.81,2.69,5.43,4.93,7.38,8.44Z"/>
      <path class="cls-14" d="m434.37,82.99c-.39-1.4-.54-2.85-.48-4.3-.88-.79-1.78-1.55-2.73-2.26,1,2.22,2,4.44,3.22,6.55Z"/>
      <path class="cls-14" d="m443.94,85c-.1-2.71,0-5.33,1.44-7.57,1.78-2.78,12.8-8.11,15.96-9.08,10.77-3.32,15.21-2.62,25.57-1.76-12.6-3.15-26.23-2.01-38.14,3.17-4.29,1.87-8.57,4.3-13.25,4.24-.23,0-.46-.02-.69-.03-.04.12-.08.25-.12.37,3.26,3.39,6.34,6.94,9.24,10.67Z"/>
      <path class="cls-14" d="m433.88,78.69c4.3,3.87,7.74,8.7,9.92,14.06.51-2.49.23-5.16.14-7.76-2.9-3.73-5.97-7.28-9.24-10.67-.48,1.41-.76,2.88-.82,4.36Z"/>
      <path class="cls-14" d="m421.96,67.35c-.86,3.32,6.77,7.3,8.99,8.93.07.05.13.1.19.15-.61-1.36-1.23-2.71-1.9-4.04-2.6-1.3-4.92-3.21-7.29-5.04Z"/>
      <path class="cls-14" d="m434.7,74.33c.04-.12.08-.25.12-.37-.17-.01-.35-.02-.52-.04.13.14.27.27.4.41Z"/>
      <path class="cls-14" d="m434.3,73.92c-1.83-.19-3.49-.75-5.05-1.53.67,1.33,1.29,2.68,1.9,4.04.95.71,1.85,1.47,2.73,2.26.06-1.48.34-2.95.82-4.36-.13-.14-.27-.27-.4-.41Z"/>
      <path class="cls-14" d="m115.63,426.72c-3.79,2.46-10.23,5.94-20.46,7.38-1.46.2-5.47.71-6.48,1.93-1.23,1.48,1.76,4.1,2.61,5.22,2.12,2.79,4.27,5.64,5.48,8.93.49,1.35,1.14,3.02,2.57,3.13.95.07,1.76-.64,2.45-1.31,4.38-4.24,8.76-8.48,13.13-12.73.74-.71,1.48-1.43,2.15-2.2,1.1-1.26,2.02-2.67,3.16-3.9.63-.68,3.06-5.07,3.1-5.99-7.03,4.1-19.99,10.93-22.26,11.12-.26-.68,12.05-9.57,14.54-11.58Z"/>
      <path class="cls-13" d="m62.25,370.22c-2.45-.46-4.96-1.19-6.58-3.2,1.27,3.58,12.17,10.4,25.96,6.21,8.5-2.58,9.67-10.66,9.5-14.67-1.43-.34-3.77.03-4.65,1.21-.88,1.18-1.77,3.8-2.48,5.09-2,3.61-5.43,4.73-9.46,5.63-4.03.9-8.23.51-12.29-.26Z"/>
      <path class="cls-14" d="m92.6,367.15c-.52,1.13-1.31,2.34-.9,3.52.03.08.06.16.12.21.16.14.41.05.61-.03,1.08-.46,2.33-.49,3.43-.1.69.24,1.32.64,1.94,1.04,2.06,1.33,4.13,2.65,6.19,3.98-2.11-2.21-4.43-4.22-6.42-6.53-1.78-2.07-2.69-4.28-3.94-6.61-.42.47-.22,1.39-.3,1.98-.11.88-.35,1.74-.72,2.54Z"/>
      <path class="cls-14" d="m300.79,390.97l-6.5-3.65s-6.33,20.48-23,44.15c-16.67,23.67-55.33,52.33-55.33,52.33,70-30.67,84.83-92.83,84.83-92.83Z"/>
      <path class="cls-14" d="m454.46,154.27c-.39.98-.79,1.94-1.26,2.89-3.68,7.52-9.87,13.59-16.77,18.33-6.91,4.74-14.56,8.25-22.17,11.75-5.74,2.63-12.07,4.88-17.46,8.12,14.8-1.7,29.56-8.01,41.71-16.5,2.46-1.72,4.87-3.57,7.64-4.7,2.77-1.14,6.04-1.48,8.72-.15,2.28,1.13,3.79,3.24,5,5.52-1.66-13.87-5.07-23.23-5.07-23.23-.11-.68-.22-1.36-.34-2.03Z"/>
      <path class="cls-14" d="m463.98,191.82c1.15-6.61-3.4-13.2-2.38-19.83.28-1.82.97-3.54,1.37-5.34.57-2.53.56-5.14.46-7.73-.21-5.2-.8-10.39-1.76-15.51-.44-2.34-1.09-4.87-3.01-6.28-1,5.8-2.04,11.68-4.2,17.14.12.68.23,1.35.34,2.03,0,0,3.4,9.36,5.07,23.23.46.86.88,1.74,1.28,2.61,1.42,3.08,2.87,6.29,2.83,9.68Z"/>
      <path class="cls-16" d="m221.58,189.28c.41.82.83,1.62,1.27,2.41.44.61.91,1.2,1.42,1.76-.32-.3-.63-.6-.94-.91,1.34,2.33,2.77,4.54,4.34,6.54,1.09,1.37,3.72,4.35,7.36,6.56-.84-3.34,2.82-6.21,6.14-7.41,4.52-1.64,9.32-2.37,14.08-3.09,16.83-2.54,33.65-5.08,50.48-7.63-20.77,3.11-41.81,4.41-62.81,3.87-5.65-.14-11.66-.58-16.83-2.63.56.38,1.12.78,1.63,1.22-2.06.21-4.21,0-6.15-.71Z"/>
      <path class="cls-14" d="m222.85,191.69c-.44-.79-.86-1.59-1.27-2.41-.08-.03-.16-.06-.25-.09.44.87.95,1.71,1.51,2.5Z"/>
      <path class="cls-16" d="m227.66,199.09c-1.56-2-3-4.21-4.34-6.54-1.23-1.24-2.34-2.58-3.35-3.99-.87-.49-1.67-1.09-2.34-1.84-1.29-1.44-2.42-4.31-1.97-6.52-.45-1.3-.82-2.62-1.1-3.96-1.31-2.33-2.68-4.19-4-4.05-3.85.4-3.36,13.07-3.15,15.77.51,6.32,3.06,12.68,7.94,16.74,5.86,4.87,13.96,5.73,21.54,6.39,5.03.44,10.06.88,15.09,1.32-3.78-.53-7.53-1.33-11.19-2.4-2.35-.68-4.96-1.77-5.71-4.1-.03-.08-.04-.16-.06-.25-3.64-2.21-6.27-5.2-7.36-6.56Z"/>
      <path class="cls-16" d="m219.12,178.7c.03-.56.08-1.11.17-1.67.27-1.8.8-3.61,1.87-5.08,1.84-2.54,4.96-3.78,7.94-4.74,15.62-5.05,32.26-6.36,47.84-11.54-17.16-.79-33.75,5.52-50.65,8.61-3.08.56-6.31,1.01-9.28.05-1.17-.38-2.31-1.05-3.23-1.92.57,5.27,1.69,10.62,3.31,15.76.61-.18,1.3.09,2.02.55Z"/>
      <path class="cls-14" d="m213.32,161.92c-.29-.96-.71-1.78-1.32-2.34.25.87.72,1.66,1.32,2.34Z"/>
      <path class="cls-16" d="m214.11,173.56c.11.9.26,1.79.45,2.67.51.91,1.02,1.89,1.5,2.86.05-.1.1-.19.16-.28.26-.38.55-.58.87-.67-1.62-5.14-2.74-10.48-3.31-15.76-.16-.15-.32-.31-.46-.47,1.06,3.46.46,8.85.8,11.64Z"/>
      <path class="cls-14" d="m224.26,193.46c-.51-.56-.98-1.15-1.42-1.76.16.29.32.57.48.85.31.31.62.61.94.91Z"/>
      <path class="cls-14" d="m219.97,188.56c1.01,1.42,2.13,2.76,3.35,3.99-.16-.28-.32-.57-.48-.85-.57-.79-1.07-1.63-1.51-2.5-.47-.18-.92-.39-1.36-.64Z"/>
      <path class="cls-14" d="m216.06,179.1c-.49-.96-.99-1.95-1.5-2.86.28,1.34.65,2.67,1.1,3.96.08-.39.22-.76.4-1.1Z"/>
      <path class="cls-14" d="m254.98,182.25c1.99-.11,3.98-.16,5.98-.12-1.99-.06-3.98,0-5.98.12Z"/>
      <path class="cls-16" d="m219.7,184.87c1.88,1.71,4.05,2.98,6.39,3.9-1.06-.72-2.19-1.33-3.37-1.81-.23-1.08.62-2.16,1.65-2.57,1.03-.41,2.18-.34,3.28-.29,7.61.34,15.18-.82,22.78-1.51-2.87.25-5.73.55-8.6.74-6.38.42-12.95.28-18.93-1.99-1.1-.42-2.48-1.82-3.78-2.64-.13,2.07.08,4.16.59,6.17Z"/>
      <path class="cls-14" d="m219.97,185.83c.51,1.18,1.05,2.33,1.61,3.45,1.93.7,4.09.92,6.15.71-.52-.44-1.07-.84-1.63-1.22-2.34-.93-4.51-2.19-6.39-3.9.08.32.17.64.27.96Z"/>
      <path class="cls-14" d="m217.63,186.72c.68.75,1.47,1.35,2.34,1.84-1.83-2.56-3.28-5.38-4.31-8.36-.45,2.21.68,5.08,1.97,6.52Z"/>
      <path class="cls-14" d="m221.58,189.28c-.56-1.13-1.1-2.28-1.61-3.45.35,1.16.81,2.29,1.37,3.36.08.03.16.06.25.09Z"/>
      <path class="cls-14" d="m217.1,178.15c.7,2.21,1.48,4.38,2.35,6.48.08.08.17.16.26.23-.51-2.01-.71-4.1-.59-6.17-.72-.46-1.42-.73-2.02-.55Z"/>
      <path class="cls-16" d="m219.45,184.63c-.87-2.11-1.65-4.27-2.35-6.48-.31.09-.61.29-.87.67-.06.09-.11.19-.16.28,1.14,2.24,2.19,4.38,3.08,5.26.1.1.2.18.3.28Z"/>
      <path class="cls-14" d="m219.7,184.87c-.09-.08-.17-.15-.26-.23.17.4.35.8.52,1.2-.1-.32-.18-.64-.27-.96Z"/>
      <path class="cls-16" d="m219.97,188.56c.44.24.89.45,1.36.64-.55-1.08-1.01-2.2-1.37-3.36-.17-.4-.36-.79-.52-1.2-.1-.09-.21-.18-.3-.28-.89-.88-1.94-3.02-3.08-5.26-.19.34-.32.71-.4,1.1,1.03,2.97,2.49,5.79,4.31,8.36Z"/>
      <path class="cls-14" d="m208.14,106.9c.51.92-.77,1.77-1.78,2.05-1.22.34-2.46.68-3.71.96,1.34,1.45,2.57,2.98,3.68,4.57.35,0,.73,0,.89-.19-.01.22-.01.41,0,.6,1.05-3.57,3.44-6.83,6.85-9.71,6.48-5.48,14.9-7.98,23.05-10.33,31.02-8.93,63.33-17.79,95.19-12.59-36.29-8.67-75.77-3.25-108.38,14.89-6.44,3.58-12.77,7.7-19.97,9.23-.25.05-.5.08-.74.13,1.41.35,3.43-.16,4.93.39Z"/>
      <path class="cls-14" d="m206.33,114.48c-1.11-1.59-2.34-3.12-3.68-4.57-2.64.59-5.33.9-7.91.37,3.37,2.79,7.88,5.53,10.1,7.9.95,1.01,1.48,9.77,1.86,16.05.89-3.3,2.04-7.02,1.26-8.91-.96-2.32-1.37-4.55-1.33-6.68-.34-1.28-.66-2.56-.95-3.86-.06-.28.27-.29.65-.3Z"/>
      <path class="cls-14" d="m207.27,140.64c-.17,0-.34-2.79-.57-6.41-.93,3.45-1.58,6.44.57,6.41Z"/>
      <path class="cls-14" d="m212.59,123.62c.4-1.58,1.2-3.02,1.99-4.44,1.57-2.82,3.19-5.7,5.62-7.82,2.11-1.85,4.71-3.03,7.26-4.18,5.91-2.66,11.83-5.33,17.94-7.48-6.92.15-13.84,1.54-20.13,4.42-6.29,2.87-11.77,6.85-15.85,12.43-.12.16-1.18.7-1.78-.09,1.97,3.17,3.5,6.55,4.6,10.06.04-.97.12-1.94.35-2.88Z"/>
      <path class="cls-14" d="m207.51,116.24c-.16-.3-.27-.74-.29-1.36-.06.21-.13.43-.18.64.16.24.32.47.47.72Z"/>
      <path class="cls-14" d="m206.64,118.63c1.45,5.51,3.33,10.92,5.62,16.14-.06-2.35-.08-4.71-.05-7.06,0-.4.01-.8.03-1.2-1.1-3.51-2.64-6.89-4.6-10.06-.04-.06-.08-.13-.12-.2-.15-.24-.31-.48-.47-.72-.25,1.01-.38,2.05-.4,3.11Z"/>
      <path class="cls-14" d="m206.33,114.48c.24.34.47.69.7,1.04.05-.22.12-.43.18-.64,0-.18,0-.38,0-.6-.16.19-.55.19-.89.19Z"/>
      <path class="cls-14" d="m206.33,114.48c-.38,0-.71.02-.65.3.29,1.29.61,2.58.95,3.86.02-1.06.15-2.1.4-3.11-.23-.35-.46-.7-.7-1.04Z"/>
      <path class="cls-14" d="m203.22,106.51c-.61-.15-1.11-.46-1.4-1.08-.7-1.48.79-3.03,2.14-3.96,8.39-5.78,18.06-9.68,28.11-11.34-6.8.5-13.52,1.93-19.93,4.26-6.41,2.33-11.25,5.35-18,6.29-1.65.23-3.97-.45-6.38-1.28,4.48,1.97,8.4,4.5,11.76,7.46,1.23,0,2.46-.12,3.71-.34Z"/>
      <path class="cls-14" d="m193.52,109.96c.41.13.82.23,1.23.32-1.92-1.59-3.47-3.2-4-4.77,2.91.84,5.81,1.36,8.76,1.34-3.36-2.96-7.28-5.49-11.76-7.46-3.19-1.1-6.53-2.45-8.66-2.29-.15,2.99,11.81,12.02,14.43,12.87Z"/>
      <path class="cls-14" d="m202.65,109.91c1.25-.28,2.5-.62,3.71-.96,1.01-.28,2.29-1.14,1.78-2.05-1.49-.55-3.51-.04-4.93-.39-1.25.22-2.48.33-3.71.34,1.11.98,2.16,2,3.15,3.06Z"/>
      <path class="cls-14" d="m202.65,109.91c-.99-1.07-2.04-2.09-3.15-3.06-2.95.02-5.86-.49-8.76-1.34.53,1.57,2.08,3.18,4,4.77,2.58.53,5.26.22,7.91-.37Z"/>
      <path class="cls-14" d="m259.13,15.56c-12.86.84-34.44,5.84-46.71,9.48-9.3,2.76-33.25,15.19-35.75,17.91.85,1.29,3.3.5,4.52.11,6.87-2.18,13.67-4.58,20.48-6.95,12.3-4.27,24.79-7.94,37.52-10.7,12.82-2.78,25.91-4.32,39.02-4.7,6.68-.2,13.37-.08,20.05.33,3.34.21,6.67.5,9.99.86,2.94.32,6.77.23,9.54,1.26-4.9-1.82-9.84-3.57-14.9-4.9-12.35-3.23-31.07-3.54-43.76-2.71Z"/>
      <path class="cls-14" d="m142.21,87.1c-19,12.38-18.62,18.75-22.91,19.97-3.3.94-5.23.52-5.66.4,8.19,2.58,18.13.13,18.13.13-2.42.42-5.26-1.37-4.31-4.38,2.01-6.38,14.75-16.12,14.75-16.12Z"/>
      <path class="cls-26" d="m372.26,505.07c7.07-3.95,14.82-8.13,18.08-15.55,1.58-3.6,1.9-7.61,2.09-11.54.61-13.06-.16-26.18-2.27-39.08-1.58-9.62-2.56-20.04-3.68-30.45-3.98,11.74-1.19,24.74-3.65,36.89-1.47,7.24-4.76,13.96-8.24,20.47-14.01,26.14-31.78,50.26-52.59,71.38-6.81,6.91-14.04,13.62-18.96,21.98,20.12-21.44,43.57-39.76,69.24-54.11Z"/>
      <path class="cls-14" d="m224.05,546.33c1.85-8.65,3.75-17.27,6.33-25.75,1.06-3.47,2.2-6.95,3.94-10.13,2.24-4.1,5.43-7.65,7.45-11.86-5.72,3.88-11.45,7.76-17.17,11.64-.63.42-1.28.88-1.62,1.55-.39.77-.3,1.69-.2,2.55,1.19,10.65,1.46,21.3,1.27,32.01Z"/>
      <path class="cls-39" d="m352.2,382.32c-3.92,9.04-8.46,17.8-13.45,26.3-2.5,4.26-5.12,8.46-7.81,12.6-2.36,3.62-3.88,7.92-7.1,10.92,11.45-8.81,21.69-19.89,30.85-31.02,8.9-10.82,17.61-22.44,22.62-35.63.89-2.33,1.65-4.71,2.31-7.11-5.01-19.49-8.77-37.73-10.55-46.75-1.06,4.8-2.51,9.91-4.07,15-.17,17.63-4.33,34.8-10.88,51.09-.62,1.54-1.26,3.08-1.92,4.61Z"/>
      <path class="cls-39" d="m379.61,358.38c.49-1.77.92-3.56,1.27-5.36.67-3.5,1.16-6.74,4.91-8.23,4.98-1.98,9.94,1.95,13.41,5.12-10.77-20.98-24.04-48.24-32.03-70.44.9,3.46.71,2.91,1.37,6.43,1.42,7.52-3.6,30.78-3.53,38.43,0,.76,0,1.52-.01,2.29,1.56-5.09,3-10.2,4.07-15,1.77,9.02,5.53,27.26,10.55,46.75Z"/>
      <path class="cls-14" d="m432.71,477.22s-2.25-8.75-14-16.12c-7.04-4.42-11.06-6.14-13.16-6.81.54,3.49,1.09,6.94,1.64,10.33,4.14-.13,13.94,1.02,25.52,12.6Z"/>
      <path class="cls-14" d="m407.19,464.62c-.55-3.39-1.1-6.84-1.64-10.33-1.41-.45-1.97-.44-1.97-.44l1.5,11s.75-.18,2.1-.23Z"/>
      <path class="cls-14" d="m479.3,172.7c.55,2.22,1.16,4.43,1.88,6.6-2.62-8-3.55-17-4-25.36-.23-4.17-.19-8.33-.06-12.5.11-3.81-.1-7.8,1.29-11.42,2.54-6.62,10.62-9.6,16.77-11.67,3.58-1.24,7.28-2.12,11.01-2.81,3.49-.64,6.92-1.48,10.73-1.6-2.1-.53-7.3-.63-10.39.1-10.36,2.45-20.97,4.02-31.61,4.37-2.59.09-5.02.82-7.52-.31-1.4-.63-2.65-1.53-3.8-2.55-.61-.54-1.2-1.12-1.78-1.7-.29-.29-.57-.6-.85-.89,7.27,15.38,12.81,32.98,17.04,53.2.46,2.21.89,4.38,1.29,6.54Z"/>
      <path class="cls-14" d="m466.51,132.36c2.31,4.71,4.62,9.43,6.37,14.38,2.97,8.41,4.25,17.31,6.41,25.96-.41-2.16-.83-4.33-1.29-6.54-4.24-20.22-9.78-37.81-17.04-53.2-3.96-4.19-7.36-8.88-10.73-13.56,6.48,10.46,10.88,21.94,16.28,32.96Z"/>
      <path class="cls-14" d="m351.24,927.32c4.13,6.18,8.28,12.39,13.18,17.99,15.97,18.25,38.71,28.87,60.76,38.97,5.8,2.66,21.84,11.61,27.78,7.02-24.1-8.69-44.34-20.41-62.22-39.14-18.42-19.29-32.55-42.2-45.89-65.29-4.25-7.36-8.7-15.04-15.84-19.64-1.82-1.17-4.42-2.04-5.96-.53-.39,8.41,1.32,16.91,4.93,24.51,2.15,4.51,4.93,8.69,7.71,12.84,5.19,7.76,10.37,15.52,15.56,23.28Z"/>
      <path class="cls-14" d="m336.09,1023.29c1.01-2.44,2.02-4.89,3.38-7.15,1.41-2.35,3.17-4.48,4.42-6.91,1.83-3.55,2.51-7.68,1.9-11.63-.19-1.22-.61-2.58-1.73-3.1-1.63-.76-3.38.75-4.4,2.23-2.67,3.89-4.06,8.48-5.41,13-3.47,11.61-5.73,22.53-3.85,34.61-.8-5.17,1.24-10.3,3.24-15.13.82-1.97,1.63-3.94,2.45-5.91Z"/>
      <path class="cls-14" d="m163.51,1079.77c5.05,3.71,10.1,7.43,15.16,11.14,1.4,1.03,2.81,2.07,4.33,2.92,2.18,1.23,4.56,2.06,6.85,3.07,8,3.52,14.88,9.15,22.63,13.18,9.17,4.77,19.35,7.21,29.41,9.61-1.87-2.02-4.5-3.12-7.04-4.2-22.29-9.44-43.51-21.39-63.15-35.55-2.45-1.77-4.89-3.58-7.03-5.72-2.67-2.67-4.82-5.8-7.1-8.81-1.61-2.12-9.67-14.09-12.48-11.59.96,1.74,2.59,3.17,3.73,4.83,3.12,4.53,4.15,10.29,7.48,14.67,1.96,2.57,4.6,4.53,7.21,6.44Z"/>
      <path class="cls-14" d="m326.09,1235.46c-1.08-4.91-1.01-10.48-4.4-14.18-.58,5.95-1.16,11.91-1.75,17.86-.45,4.56-1.66,9.73-.85,14.31,1.48,8.33,12.08,9.39,19.02,8.1-3.05-5.21-5.92-10.3-8.35-15.89-1.44-3.32-2.89-6.66-3.67-10.19Z"/>
      <path class="cls-14" d="m551.11,826.61c-4.35-5.23-9.89-9.46-16.09-12.26-5.12-2.32-10.61-3.66-15.87-5.65-3.26-1.24-6.41-2.72-9.57-4.2-2.66-1.25-5.33-2.51-7.99-3.76-6.35-2.99-12.65-6.28-19.13-8.96,8.66,8.24,18,15.84,29.12,20.49,4.82,2.01,9.86,3.44,14.66,5.48,8.43,3.58,15.96,8.98,23.4,14.32,3.77,2.71,7.61,5.51,10.93,8.73-3.05-4.8-5.84-9.82-9.47-14.18Z"/>
      <path class="cls-14" d="m560.58,840.8c2.05,3.22,4.22,6.35,6.86,9.1-1.69-3.46-4.1-6.43-6.86-9.1Z"/>
      <path class="cls-14" d="m101.31,785.09c1.27,1.43,3.12,2.01,5.06,2.25-1.8-.94-3.59-1.88-5.39-2.82.06.19.16.39.32.57Z"/>
      <path class="cls-14" d="m147.53,784.57c6.64-2.98,11.69-10,10.76-17.22-1.84,5.03-7.88,6.88-13.14,7.88-12.3,2.34-24.76,3.74-37.21,5.14-1.82-.41-4.73.67-6.17,2.07,5.55,1.39,11.02,3.09,16.38,5.09,2.64,0,5.28.02,7.92.03,7.28.02,14.82,0,21.46-2.99Z"/>
      <path class="cls-14" d="m118.15,787.53c-5.36-2-10.83-3.69-16.38-5.09-.67.66-1.01,1.39-.78,2.07,1.8.94,3.59,1.88,5.39,2.82,1.09.13,2.21.16,3.28.17,2.83,0,5.66.02,8.49.03Z"/>
      <path class="cls-14" d="m248.9,849.8c1.09-.66,1.38-2.08,1.67-3.33,2.11-8.99,9.58-15.62,13.99-23.73,2.97-5.45,4.57-11.63,8.09-16.75,3.15-4.58,7.67-8.06,12.45-10.89,3.4-2.01,7.4-4.35,7.8-8.28-10.27-1.9-19.34,5.16-28.11,9.25-10.94,5.11-8.34,8.53-15.65,17.67-7.61,9.51-11.81,23.59-5.13,33.77,1.09,1.67,3.18,3.31,4.89,2.28Z"/>
      <path class="cls-14" d="m172.94,1260.4c-1.41-.84-3.15-.81-4.79-.86-15.8-.46-23.21-9.94-34.45-18.79-14.88-11.72-9.76,11.45-9.75,22.39,0,3.04.09,6.32,1.92,8.75,1.39,1.84,3.61,2.89,5.85,3.45,6.91,1.72,14.11-.65,20.83-3,6.59-2.3,13.17-4.59,19.76-6.89.6-.21,1.23-.44,1.67-.9,1.13-1.19.36-3.31-1.05-4.16Z"/>
      <path class="cls-14" d="m307.3,1237.07c2.75,1.16,4.58,2.19,5.29,3.14.27-4.63.54-9.88.7-15.42-1.05,2.36-2.3,4.55-3.75,6.5-.78,1.89-1.53,3.82-2.25,5.78Z"/>
      <path class="cls-14" d="m299.41,1260.59c-8.13,23.61,1.72,32.32,15.71,48.88-7.27-8.61-11.47-19.77-11.68-31.04-.22-12.11,5.16-24.21,8.67-36.18-1.15.81-3.56,1.55-7.41,2.25-1.85,5.55-3.56,11.06-5.29,16.08Z"/>
      <path class="cls-14" d="m314.78,1220.92c-.44,1.33-.93,2.62-1.48,3.87-.17,5.54-.43,10.79-.7,15.42-.71-.94-2.54-1.98-5.29-3.14-.9,2.46-1.76,4.96-2.59,7.45,3.85-.7,6.26-1.44,7.41-2.25,2.1-7.17,3.52-14.29,2.67-21.34Z"/>
      <path class="cls-14" d="m313.29,1224.79c.02-.56.03-1.13.05-1.69-1.36,2.59-2.62,5.34-3.8,8.2,1.45-1.95,2.7-4.14,3.75-6.5Z"/>
      <path class="cls-14" d="m314.78,1220.92c-.01-.12-.02-.24-.04-.36-.48.82-.94,1.67-1.4,2.53-.02.57-.03,1.13-.05,1.69.55-1.25,1.05-2.54,1.48-3.87Z"/>
      <path class="cls-14" d="m544.12,990.2c5.21-2.27,11.44-3.96,13.98-9.04.99-1.98,1.25-4.23,1.5-6.43.71-6.2,3.24-15.65,1.21-20.87-4.2,5.98-5.89,15.35-10.32,22.18-5.56,8.54-12.66,15.96-19.71,23.32,3.81-3.87,8.36-7,13.34-9.16Z"/>
      <path class="cls-14" d="m374.04,646.95c8.97-4.49,17.31-10.79,24.67-17.55,3.29-3.03,6.55-6.51,7.41-10.89-19.77,7.33-39.11,17.86-55.23,31.54,9.15-1.44,13.89,1.55,23.15-3.09Z"/>
    </g>
  </g>
</svg>